<svg version="1.1" xmlns="http://www.w3.org/2000/svg" viewBox="0 0 3501.7653874296984 2199.958042274888" width="3501.7653874296984" height="2199.958042274888" filter="invert(93%) hue-rotate(180deg)">
  <!-- svg-source:excalidraw -->
  
  <defs>
    <style class="style-fonts">
      @font-face {
        font-family: "Virgil";
        src: url("https://excalidraw.com/Virgil.woff2");
      }
      @font-face {
        font-family: "Cascadia";
        src: url("https://excalidraw.com/Cascadia.woff2");
      }
    </style>
    
  </defs>
  <rect x="0" y="0" width="3501.7653874296984" height="2199.958042274888" fill="#ffffff"></rect><g stroke-linecap="round" transform="translate(1968.0778158276582 631.606956680605) rotate(0 235.23709501133976 58.41808124450125)"><path d="M29.96 -3.27 L448.73 2.91 L464.51 9.89 L470.53 15.52 L473.42 31.31 L471.14 94.18 L462.37 109.22 L454.43 114.28 L443.84 119.72 L22.95 116.28 L3.74 107.9 L3.36 103.22 L-0.98 29.15 L3.73 16.82 L6.74 7.81 L15.68 1.92 L26.88 -3.87" stroke="none" stroke-width="0" fill="#a18072"></path><path d="M29.21 0 M29.21 0 C133.02 4.6, 234.39 4.89, 441.27 0 M29.21 0 C114.32 -1.77, 199.79 -1.03, 441.27 0 M441.27 0 C457.91 -0.66, 470.37 9, 470.47 29.21 M441.27 0 C457.21 -4.33, 471.13 9.62, 470.47 29.21 M470.47 29.21 C468.46 43.88, 468.69 64.13, 470.47 87.63 M470.47 29.21 C468.11 51.59, 469.65 73.08, 470.47 87.63 M470.47 87.63 C468.67 106.11, 461.5 112.96, 441.27 116.84 M470.47 87.63 C468.91 109.14, 456.56 119.11, 441.27 116.84 M441.27 116.84 C328.53 113.29, 218.05 115.9, 29.21 116.84 M441.27 116.84 C314.93 115.72, 186.47 115.97, 29.21 116.84 M29.21 116.84 C11.57 117.87, -0.44 106.81, 0 87.63 M29.21 116.84 C6.67 118.57, 0.21 103.22, 0 87.63 M0 87.63 C-3.25 73.05, 0.58 60.59, 0 29.21 M0 87.63 C-2.47 72.27, -1.86 56.51, 0 29.21 M0 29.21 C3.53 10.13, 8.35 1.68, 29.21 0 M0 29.21 C-3.44 10.99, 5.64 -3.81, 29.21 0" stroke="#ffd8a8" stroke-width="4" fill="none"></path></g><g stroke-linecap="round" transform="translate(3034.207798539808 941.4314232809058) rotate(0 215.3174545030074 246.49646002749085)"><path d="M32 0 M32 0 C131.64 -1.56, 228.87 1.8, 398.63 0 M32 0 C143.7 2.61, 256.12 1.97, 398.63 0 M398.63 0 C418.55 1.36, 429.46 14.08, 430.63 32 M398.63 0 C416.37 -4.39, 432.02 6.2, 430.63 32 M430.63 32 C433.86 139.06, 435.32 245.19, 430.63 460.99 M430.63 32 C433.52 160.49, 433.21 289.82, 430.63 460.99 M430.63 460.99 C434.07 486.28, 422.24 495.17, 398.63 492.99 M430.63 460.99 C435.21 481.78, 419.13 491.66, 398.63 492.99 M398.63 492.99 C314.46 497.34, 230.14 496.84, 32 492.99 M398.63 492.99 C307.39 493.3, 213.6 491.64, 32 492.99 M32 492.99 C13.24 492.15, 2 484.54, 0 460.99 M32 492.99 C9.63 495.22, -1.06 481.54, 0 460.99 M0 460.99 C-1.1 308.23, -1.09 155.13, 0 32 M0 460.99 C4.42 327.43, 3.44 194.26, 0 32 M0 32 C-1 10.02, 8.58 -1.38, 32 0 M0 32 C-2.52 8.92, 13.67 2.11, 32 0" stroke="#1e1e1e" stroke-width="2" fill="none"></path></g><g stroke-linecap="round" transform="translate(2498.7909976849596 1623.3014436952772) rotate(0 438.1356093337595 183.07809390017803)"><path d="M32 0 M32 0 C331.29 1.31, 629.33 0.97, 844.27 0 M32 0 C202.76 5.61, 374.54 5.3, 844.27 0 M844.27 0 C862.66 1.16, 877.44 8.1, 876.27 32 M844.27 0 C866.06 0.82, 872.05 9.21, 876.27 32 M876.27 32 C877.49 104.7, 879.57 172.52, 876.27 334.16 M876.27 32 C878.64 96.95, 876.7 165.01, 876.27 334.16 M876.27 334.16 C877.24 353.7, 861.83 366.63, 844.27 366.16 M876.27 334.16 C872.09 357.3, 869 368.34, 844.27 366.16 M844.27 366.16 C575.17 369.01, 306.28 370.32, 32 366.16 M844.27 366.16 C666.23 368.28, 488.94 367.2, 32 366.16 M32 366.16 C10.94 369.87, 0.57 357.59, 0 334.16 M32 366.16 C11.25 362.76, 2.16 352.43, 0 334.16 M0 334.16 C-2.74 249.2, 0.35 169.3, 0 32 M0 334.16 C-1.6 250.5, 0.19 168.21, 0 32 M0 32 C3.61 14.22, 10.16 3.17, 32 0 M0 32 C1.76 6.3, 15.24 4.12, 32 0" stroke="#1e1e1e" stroke-width="2" fill="none"></path></g><g stroke-linecap="round" transform="translate(2296.679522827979 941.4314232809061) rotate(0 352.59484751145396 328.63495485326536)"><path d="M32 0 M32 0 C263.2 0.87, 492.77 2.57, 673.19 0 M32 0 C210.87 2.67, 389.05 2.38, 673.19 0 M673.19 0 C693.57 -3.06, 705.69 12.35, 705.19 32 M673.19 0 C696.16 0.56, 703.93 8.91, 705.19 32 M705.19 32 C703.07 223.76, 703.64 416.89, 705.19 625.27 M705.19 32 C707.03 233.9, 707.13 435.31, 705.19 625.27 M705.19 625.27 C706.29 644.91, 691.72 658.52, 673.19 657.27 M705.19 625.27 C709.46 645.3, 697.29 658.44, 673.19 657.27 M673.19 657.27 C525.93 657.67, 378.36 657.34, 32 657.27 M673.19 657.27 C432.99 654, 192 654.72, 32 657.27 M32 657.27 C9.32 658.5, 1.9 647.48, 0 625.27 M32 657.27 C6.55 658.49, 0.42 647.31, 0 625.27 M0 625.27 C2.22 428.48, 4.12 230.03, 0 32 M0 625.27 C4.8 411.46, 4.86 198.12, 0 32 M0 32 C3.72 9.53, 8.27 1.14, 32 0 M0 32 C-1.46 12.75, 12.3 -3.54, 32 0" stroke="#1e1e1e" stroke-width="2" fill="none"></path></g><g stroke-linecap="round" transform="translate(1932.5533140025566 10) rotate(0 266 42.5)"><path d="M21.25 0 M21.25 0 C154.06 0.74, 288.26 1.03, 510.75 0 M21.25 0 C136.2 -1.85, 252.41 -2.44, 510.75 0 M510.75 0 C527.12 3.78, 535.02 3.34, 532 21.25 M510.75 0 C522.34 2.86, 531.9 11.34, 532 21.25 M532 21.25 C530.83 38.31, 533.41 49.88, 532 63.75 M532 21.25 C530.27 37.97, 530.6 54.61, 532 63.75 M532 63.75 C530.15 77.06, 522.54 84.21, 510.75 85 M532 63.75 C530.15 81.8, 528.4 89.29, 510.75 85 M510.75 85 C357.96 85.36, 204.79 85.05, 21.25 85 M510.75 85 C400.51 86.51, 289.12 87.11, 21.25 85 M21.25 85 C9.24 83.86, -1.18 74.3, 0 63.75 M21.25 85 C11.13 84.61, -3.88 81.17, 0 63.75 M0 63.75 C-2.32 52.44, 1.23 37.53, 0 21.25 M0 63.75 C1.85 50.96, 0.16 41.43, 0 21.25 M0 21.25 C2.22 10.99, 7.81 -0.46, 21.25 0 M0 21.25 C1.84 4.3, 6.84 1.73, 21.25 0" stroke="#1e1e1e" stroke-width="4" fill="none"></path></g><g transform="translate(1950.5533140025566 30) rotate(0 248.18333435058594 22.5)"><text x="0" y="0" font-family="Virgil, Segoe UI Emoji" font-size="36px" fill="#1e1e1e" text-anchor="start" style="white-space: pre;" direction="ltr" dominant-baseline="text-before-edge">Planning of db_mocker tools</text></g><g transform="translate(2143.269091294127 659.722777769543) rotate(0 59.79999923706055 22.5)"><text x="0" y="0" font-family="Virgil, Segoe UI Emoji" font-size="36px" fill="#ffffff" text-anchor="start" style="white-space: pre;" direction="ltr" dominant-baseline="text-before-edge">Library</text></g><g transform="translate(1159.7476826555933 913.1420954097042) rotate(0 63.42499923706055 17.5)"><text x="0" y="0" font-family="Virgil, Segoe UI Emoji" font-size="28px" fill="#f08c00" text-anchor="start" style="white-space: pre;" direction="ltr" dominant-baseline="text-before-edge">VdbWriter</text></g><g transform="translate(1784.6125159673113 912.926195298588) rotate(0 70.44999694824219 17.5)"><text x="0" y="0" font-family="Virgil, Segoe UI Emoji" font-size="28px" fill="#f08c00" text-anchor="start" style="white-space: pre;" direction="ltr" dominant-baseline="text-before-edge">VdbReader</text></g><g transform="translate(936.5071578998209 1077.7486388098596) rotate(0 132.64166259765625 17.5)"><text x="0" y="0" font-family="Virgil, Segoe UI Emoji" font-size="28px" fill="#f08c00" text-anchor="start" style="white-space: pre;" direction="ltr" dominant-baseline="text-before-edge">VdbDatabaseWriter</text></g><g transform="translate(1920.2259188563328 1074.6190987431896) rotate(0 92.89167022705078 17.5)"><text x="0" y="0" font-family="Virgil, Segoe UI Emoji" font-size="28px" fill="#f08c00" text-anchor="start" style="white-space: pre;" direction="ltr" dominant-baseline="text-before-edge">VdbFileReader</text></g><g transform="translate(1563.4583512559864 1073.5759187209665) rotate(0 139.6666717529297 17.5)"><text x="0" y="0" font-family="Virgil, Segoe UI Emoji" font-size="28px" fill="#f08c00" text-anchor="start" style="white-space: pre;" direction="ltr" dominant-baseline="text-before-edge">VdbDatabaseReader</text></g><g stroke-linecap="round"><g transform="translate(1195.5093353993109 962.9988363653034) rotate(0 -29.411464152761255 57.363817529551795)"><path d="M-0.43 1.98 C-9.81 19.96, -47.19 92.42, -56.42 110.54 M-4.11 0.58 C-13.8 20.25, -49.57 95.27, -58.39 114.15" stroke="#1e1e1e" stroke-width="4" fill="none"></path></g><g transform="translate(1195.5093353993109 962.9988363653034) rotate(0 -29.411464152761255 57.363817529551795)"><path d="M-52.79 84.97 C-55.93 94.61, -56.54 105.33, -57.5 111.58 M-54.03 85.62 C-57.03 96.77, -56.97 104.43, -59.42 114.04" stroke="#1e1e1e" stroke-width="4" fill="none"></path></g><g transform="translate(1195.5093353993109 962.9988363653034) rotate(0 -29.411464152761255 57.363817529551795)"><path d="M-34.24 93.75 C-43 100.74, -49.09 108.88, -57.5 111.58 M-35.48 94.4 C-45.02 102.55, -51.6 107.06, -59.42 114.04" stroke="#1e1e1e" stroke-width="4" fill="none"></path></g></g><mask></mask><g transform="translate(1261.9793248334702 1076.7054587876364) rotate(0 85.86666870117188 17.5)"><text x="0" y="0" font-family="Virgil, Segoe UI Emoji" font-size="28px" fill="#f08c00" text-anchor="start" style="white-space: pre;" direction="ltr" dominant-baseline="text-before-edge">VdbFileWriter</text></g><g stroke-linecap="round"><g transform="translate(1259.0427727722417 956.739756231964) rotate(0 37.1772051026054 55.05440391885486)"><path d="M1.84 -0.24 C14 19.02, 62.69 94.72, 74.95 112.95 M-0.6 -2.85 C10.93 15.92, 59.97 90.17, 72.32 109.23" stroke="#1e1e1e" stroke-width="4" fill="none"></path></g><g transform="translate(1259.0427727722417 956.739756231964) rotate(0 37.1772051026054 55.05440391885486)"><path d="M47.95 90.22 C60.3 97.3, 63.86 105.58, 69.82 107.92 M50.07 93.17 C57.13 96.64, 65.45 104.37, 73.38 108.97" stroke="#1e1e1e" stroke-width="4" fill="none"></path></g><g transform="translate(1259.0427727722417 956.739756231964) rotate(0 37.1772051026054 55.05440391885486)"><path d="M65.12 78.98 C70.86 90.47, 68.03 102.94, 69.82 107.92 M67.24 81.93 C68.67 89.01, 71.17 100.54, 73.38 108.97" stroke="#1e1e1e" stroke-width="4" fill="none"></path></g></g><mask></mask><g stroke-linecap="round"><g transform="translate(1788.785236056205 956.739756231964) rotate(0 -32.90752931393217 53.5343983595543)"><path d="M1.64 1.11 C-9.64 18.87, -54.61 88, -65.76 105.34 M-0.91 -0.76 C-12.65 17.4, -56.56 89.87, -67.46 107.83" stroke="#1e1e1e" stroke-width="4" fill="none"></path></g><g transform="translate(1788.785236056205 956.739756231964) rotate(0 -32.90752931393217 53.5343983595543)"><path d="M-60.02 79.83 C-67.02 91.45, -69.48 103.69, -69.67 111.72 M-59.68 78.22 C-62.91 88.15, -64.18 97.3, -66.09 108.16" stroke="#1e1e1e" stroke-width="4" fill="none"></path></g><g transform="translate(1788.785236056205 956.739756231964) rotate(0 -32.90752931393217 53.5343983595543)"><path d="M-42.47 90.48 C-55.85 98.38, -64.77 106.7, -69.67 111.72 M-42.14 88.86 C-50.82 95.57, -57.4 101.49, -66.09 108.16" stroke="#1e1e1e" stroke-width="4" fill="none"></path></g></g><mask></mask><g stroke-linecap="round"><g transform="translate(1902.8808357813289 957.7829362541872) rotate(0 32.29722673330184 54.99511062730255)"><path d="M-0.09 1.38 C11.64 19.63, 57.04 92.69, 68.18 110.33 M-3.58 -0.34 C8.12 17.04, 55.39 87.99, 66.84 106.32" stroke="#1e1e1e" stroke-width="4" fill="none"></path></g><g transform="translate(1902.8808357813289 957.7829362541872) rotate(0 32.29722673330184 54.99511062730255)"><path d="M44.86 90.61 C50.93 92.6, 51.75 99.55, 69.04 110.23 M42.5 88.88 C50.71 92.66, 60.23 101.94, 66.52 107.24" stroke="#1e1e1e" stroke-width="4" fill="none"></path></g><g transform="translate(1902.8808357813289 957.7829362541872) rotate(0 32.29722673330184 54.99511062730255)"><path d="M62.08 79.44 C64.41 83.9, 61.42 93.32, 69.04 110.23 M59.72 77.72 C62.41 84.98, 66.19 97.98, 66.52 107.24" stroke="#1e1e1e" stroke-width="4" fill="none"></path></g></g><mask></mask><g transform="translate(990.7525190554275 1237.3551822100144) rotate(0 85.15833282470703 17.5)"><text x="0" y="0" font-family="Virgil, Segoe UI Emoji" font-size="28px" fill="#2f9e44" text-anchor="start" style="white-space: pre;" direction="ltr" dominant-baseline="text-before-edge">MySQLWriter</text></g><g transform="translate(1633.3514127449419 1225.880201965559) rotate(0 92.18333435058594 17.5)"><text x="0" y="0" font-family="Virgil, Segoe UI Emoji" font-size="28px" fill="#2f9e44" text-anchor="start" style="white-space: pre;" direction="ltr" dominant-baseline="text-before-edge">MySQLReader</text></g><g transform="translate(1294.317905522389 1237.3551822100144) rotate(0 70.21666717529286 17.5)"><text x="0" y="0" font-family="Virgil, Segoe UI Emoji" font-size="28px" fill="#2f9e44" text-anchor="start" style="white-space: pre;" direction="ltr" dominant-baseline="text-before-edge">YamlWriter</text></g><g transform="translate(1937.959979234127 1231.0961020766754) rotate(0 77.24166870117188 17.5)"><text x="0" y="0" font-family="Virgil, Segoe UI Emoji" font-size="28px" fill="#2f9e44" text-anchor="start" style="white-space: pre;" direction="ltr" dominant-baseline="text-before-edge">YamlReader</text></g><g transform="translate(951.1116782109445 1308.2914237211944) rotate(0 121.07499694824219 17.5)"><text x="0" y="0" font-family="Virgil, Segoe UI Emoji" font-size="28px" fill="#2f9e44" text-anchor="start" style="white-space: pre;" direction="ltr" dominant-baseline="text-before-edge">PostgreSQLWriter</text></g><g transform="translate(1584.3219517004493 1290.5573633433992) rotate(0 128.10000610351562 17.5)"><text x="0" y="0" font-family="Virgil, Segoe UI Emoji" font-size="28px" fill="#2f9e44" text-anchor="start" style="white-space: pre;" direction="ltr" dominant-baseline="text-before-edge">PostgreSQLReader</text></g><g stroke-linecap="round" transform="translate(927.1185376998105 1205.016601521094) rotate(0 147.60997314458814 85.54076182230551)"><path d="M32 0 M32 0 C120.38 6.42, 210.31 1.56, 263.22 0 M32 0 C106.72 3.87, 178.51 2.16, 263.22 0 M263.22 0 C286.43 -1.74, 293.17 11.66, 295.22 32 M263.22 0 C280.21 2.36, 291.69 14.35, 295.22 32 M295.22 32 C297.16 65.36, 295.29 92.52, 295.22 139.08 M295.22 32 C294.6 73.23, 293.48 114.2, 295.22 139.08 M295.22 139.08 C293.02 157.05, 280.79 168.26, 263.22 171.08 M295.22 139.08 C296.99 160.65, 284.66 174.21, 263.22 171.08 M263.22 171.08 C214.58 170.8, 156.54 173.65, 32 171.08 M263.22 171.08 C210.74 171.24, 159.21 170.63, 32 171.08 M32 171.08 C10.07 174.92, 1.95 157.62, 0 139.08 M32 171.08 C13.45 173.35, 1.25 163.41, 0 139.08 M0 139.08 C-2.4 117.83, -2.25 99.26, 0 32 M0 139.08 C0.33 104.74, -2.98 67.96, 0 32 M0 32 C-0.23 13.86, 11.32 2.33, 32 0 M0 32 C2.46 7.52, 8.54 0.22, 32 0" stroke="#1e1e1e" stroke-width="4" fill="none"></path></g><g stroke-linecap="round"><g transform="translate(1073.37293434849 1119.475839698789) rotate(0 -4.554517315718385 42.92967987427704)"><path d="M0.33 2.3 C-1.54 16.75, -8.37 71.71, -9.44 84.77 M-2.93 1.09 C-4.12 14.96, -3.6 67.42, -4.35 81.04" stroke="#1e1e1e" stroke-width="2" fill="none"></path></g><g transform="translate(1073.37293434849 1119.475839698789) rotate(0 -4.554517315718385 42.92967987427704)"><path d="M-10.76 49.22 C-7.52 64.33, -9.85 73.11, -0.97 82.04 M-12.13 50.93 C-10.26 64.26, -6.25 71.57, -2.81 79.69" stroke="#1e1e1e" stroke-width="2" fill="none"></path></g><g transform="translate(1073.37293434849 1119.475839698789) rotate(0 -4.554517315718385 42.92967987427704)"><path d="M9.76 49.62 C5.52 64.63, -4.29 73.27, -0.97 82.04 M8.39 51.33 C2.78 64.41, -0.68 71.56, -2.81 79.69" stroke="#1e1e1e" stroke-width="2" fill="none"></path></g></g><mask></mask><g stroke-linecap="round" transform="translate(1572.8469714559944 1208.1461415877639) rotate(0 139.7861229779137 67.8067014445104)"><path d="M32 0 M32 0 C87.32 -0.86, 143.31 -1.19, 247.57 0 M32 0 C78.82 -0.81, 125.13 -3.03, 247.57 0 M247.57 0 C267.09 2.78, 281.52 10.4, 279.57 32 M247.57 0 C269.52 3.86, 277.33 7.1, 279.57 32 M279.57 32 C278.63 52.21, 278.98 78.67, 279.57 103.61 M279.57 32 C279.57 54.48, 279.73 77.71, 279.57 103.61 M279.57 103.61 C275.73 128.64, 268.59 138.82, 247.57 135.61 M279.57 103.61 C279.96 128.45, 269.04 133.23, 247.57 135.61 M247.57 135.61 C185.6 134.3, 131.1 135.75, 32 135.61 M247.57 135.61 C171.43 134.98, 96.55 134.64, 32 135.61 M32 135.61 C14.45 136.61, -2.96 125.2, 0 103.61 M32 135.61 C12.22 136.75, -4.17 126.84, 0 103.61 M0 103.61 C-3.85 75.64, -4.14 53.52, 0 32 M0 103.61 C2.62 78.89, -0.58 52.35, 0 32 M0 32 C1.23 11.75, 7.06 -2.56, 32 0 M0 32 C-2.97 9.13, 7.66 -0.95, 32 0" stroke="#1e1e1e" stroke-width="2" fill="none"></path></g><g stroke-linecap="round"><g transform="translate(1709.5035543672377 1121.5621997432354) rotate(0 1.092406145583027 42.59887613080065)"><path d="M-0.1 0.44 C0.96 14.65, 4.95 72.35, 5.79 86.99 M-3.61 -1.79 C-2.91 11.43, 2.3 68.43, 3.3 82.76" stroke="#1e1e1e" stroke-width="2" fill="none"></path></g><g transform="translate(1709.5035543672377 1121.5621997432354) rotate(0 1.092406145583027 42.59887613080065)"><path d="M-8.59 54.83 C-3.31 61.23, 2.03 69.79, 1.99 84.52 M-9.38 56.75 C-7 64.27, -2.25 73.89, 2.37 81.01" stroke="#1e1e1e" stroke-width="2" fill="none"></path></g><g transform="translate(1709.5035543672377 1121.5621997432354) rotate(0 1.092406145583027 42.59887613080065)"><path d="M11.86 53.16 C11.45 60.01, 11.07 69.04, 1.99 84.52 M11.08 55.09 C7.21 62.8, 5.76 72.92, 2.37 81.01" stroke="#1e1e1e" stroke-width="2" fill="none"></path></g></g><mask></mask><g stroke-linecap="round" transform="translate(1272.4111250557014 1206.0597815433175) rotate(0 91.27825194453317 44.33515094448762)"><path d="M22.17 0 M22.17 0 C59.94 -2.22, 100.5 0.95, 160.39 0 M22.17 0 C68.76 -2.28, 115.42 -2.73, 160.39 0 M160.39 0 C178.62 3.79, 183.89 9.97, 182.56 22.17 M160.39 0 C178.18 -4.08, 179.13 4.25, 182.56 22.17 M182.56 22.17 C179.82 34.33, 179.72 50.83, 182.56 66.5 M182.56 22.17 C183.5 36.55, 184.5 47.51, 182.56 66.5 M182.56 66.5 C182.88 77.75, 172.8 91.42, 160.39 88.67 M182.56 66.5 C180.43 77.44, 172.97 84.3, 160.39 88.67 M160.39 88.67 C129.33 89.56, 99 90.45, 22.17 88.67 M160.39 88.67 C113.59 90.3, 66.53 89.13, 22.17 88.67 M22.17 88.67 C8.14 85.04, 3.39 83.79, 0 66.5 M22.17 88.67 C9.18 92.37, -2.12 84.02, 0 66.5 M0 66.5 C-0.42 53.44, -2.35 36.03, 0 22.17 M0 66.5 C0.33 55.38, 0.91 44.66, 0 22.17 M0 22.17 C2.03 8.84, 10.47 -3.69, 22.17 0 M0 22.17 C3.67 7.72, 3.1 -1.25, 22.17 0" stroke="#1e1e1e" stroke-width="2" fill="none"></path></g><g stroke-linecap="round" transform="translate(1919.1827388341087 1208.1461415877639) rotate(0 94.92938202231448 39.64084084448291)"><path d="M19.82 0 M19.82 0 C52.37 3.29, 81.4 -2.93, 170.04 0 M19.82 0 C76.81 3.35, 137.19 3.76, 170.04 0 M170.04 0 C179.82 2.03, 193.19 6.03, 189.86 19.82 M170.04 0 C183.6 0.94, 190.05 2.39, 189.86 19.82 M189.86 19.82 C188.09 35.46, 191.06 53.33, 189.86 59.46 M189.86 19.82 C187.91 35, 190.18 49.45, 189.86 59.46 M189.86 59.46 C190 73.45, 186.46 77.64, 170.04 79.28 M189.86 59.46 C193.64 71.8, 178.68 78.37, 170.04 79.28 M170.04 79.28 C132.72 81.48, 96.78 80.7, 19.82 79.28 M170.04 79.28 C140.53 83.72, 105.16 82.04, 19.82 79.28 M19.82 79.28 C6.16 79.27, -2.84 69.74, 0 59.46 M19.82 79.28 C2.65 76.55, 0.74 71.36, 0 59.46 M0 59.46 C-3.59 42.54, 4.02 30.86, 0 19.82 M0 59.46 C-2.34 50.71, -1.86 36.7, 0 19.82 M0 19.82 C2.2 9.89, 6.84 -0.89, 19.82 0 M0 19.82 C-2.75 7.46, 2.77 2.9, 19.82 0" stroke="#1e1e1e" stroke-width="2" fill="none"></path></g><g stroke-linecap="round"><g transform="translate(1362.1246069669003 1119.475839698789) rotate(0 0.39853617854555523 37.32117246733327)"><path d="M1.8 -2.09 C2.3 10.29, 1.25 64.32, 0.72 76.73 M-0.67 2.95 C-0.27 15.83, -0.58 61.23, -1.13 73.17" stroke="#1e1e1e" stroke-width="2" fill="none"></path></g><g transform="translate(1362.1246069669003 1119.475839698789) rotate(0 0.39853617854555523 37.32117246733327)"><path d="M-13.72 45.77 C-4.32 48.81, -8.43 54.75, -1.57 70.26 M-10.82 44.03 C-10.04 52.81, -5.04 61.07, -1.85 74.82" stroke="#1e1e1e" stroke-width="2" fill="none"></path></g><g transform="translate(1362.1246069669003 1119.475839698789) rotate(0 0.39853617854555523 37.32117246733327)"><path d="M6.8 46.25 C11.69 49.45, 3.09 55.28, -1.57 70.26 M9.7 44.51 C4.3 53.18, 3.11 61.3, -1.85 74.82" stroke="#1e1e1e" stroke-width="2" fill="none"></path></g></g><mask></mask><g stroke-linecap="round"><g transform="translate(2019.3280209675393 1121.5621997432354) rotate(0 3.7685169736796524 36.48386178866423)"><path d="M2.33 -2.31 C2.67 10.13, 1.38 60.27, 1.74 72.87 M0.15 2.61 C1.46 15.49, 6.85 63.16, 7.38 75.28" stroke="#1e1e1e" stroke-width="2" fill="none"></path></g><g transform="translate(2019.3280209675393 1121.5621997432354) rotate(0 3.7685169736796524 36.48386178866423)"><path d="M-8.48 46.05 C-5.1 57.62, -0.93 62.59, 3.7 71.94 M-5.58 50.03 C-0.84 56.53, 1.27 65.12, 9.02 75.53" stroke="#1e1e1e" stroke-width="2" fill="none"></path></g><g transform="translate(2019.3280209675393 1121.5621997432354) rotate(0 3.7685169736796524 36.48386178866423)"><path d="M11.97 44.34 C9.41 56.75, 7.65 62.22, 3.7 71.94 M14.87 48.33 C13.26 55.7, 9 64.83, 9.02 75.53" stroke="#1e1e1e" stroke-width="2" fill="none"></path></g></g><mask></mask><g transform="translate(909.5082429466399 785.2883586187418) rotate(0 153.0500030517578 17.5)"><text x="0" y="0" font-family="Virgil, Segoe UI Emoji" font-size="28px" fill="#f08c00" text-anchor="start" style="white-space: pre;" direction="ltr" dominant-baseline="text-before-edge">orange Text =&gt; Trait</text></g><g transform="translate(910.5514229688631 819.7132993521086) rotate(0 206.3333282470703 17.5)"><text x="0" y="0" font-family="Virgil, Segoe UI Emoji" font-size="28px" fill="#2f9e44" text-anchor="start" style="white-space: pre;" direction="ltr" dominant-baseline="text-before-edge">green Text =&gt; Implementation</text></g><g transform="translate(1437.2335685669739 788.7877726540225) rotate(0 73.64167022705078 17.5)"><text x="0" y="0" font-family="Virgil, Segoe UI Emoji" font-size="28px" fill="#1971c2" text-anchor="start" style="white-space: pre;" direction="ltr" dominant-baseline="text-before-edge">Controllers</text></g><g stroke-linecap="round"><g transform="translate(1429.9313084114112 829.4717935207289) rotate(0 81.08278354900631 3.727406279530726)"><path d="M-0.55 2.38 C27.02 2.75, 138.82 2.7, 166.46 3.17 M-4.3 1.2 C22.77 1.88, 136.16 6.42, 163.99 6.25" stroke="#1e1e1e" stroke-width="2" fill="none"></path></g></g><mask></mask><g stroke-linecap="round" transform="translate(1365.2541470335702 765.8378121651115) rotate(0 147.08838313347633 49.55105105560372)"><path d="M213.04 4.31 C229.08 6.2, 245.04 12.18, 257.11 16.88 C269.18 21.58, 279.46 27.08, 285.46 32.52 C291.47 37.96, 293.21 43.7, 293.14 49.53 C293.07 55.37, 291.7 61.69, 285.05 67.53 C278.39 73.38, 265.77 80.1, 253.23 84.6 C240.69 89.1, 225.42 91.96, 209.81 94.51 C194.2 97.05, 177.16 99.42, 159.58 99.87 C142.01 100.33, 121.77 98.88, 104.35 97.22 C86.93 95.57, 69.12 93.97, 55.07 89.96 C41.02 85.96, 29.03 78.44, 20.03 73.2 C11.03 67.95, 4.06 64.28, 1.07 58.48 C-1.91 52.69, -1.36 44.3, 2.1 38.43 C5.55 32.57, 12.34 28.12, 21.8 23.28 C31.26 18.45, 44.26 13.31, 58.86 9.44 C73.45 5.56, 91.73 1.34, 109.39 0.04 C127.04 -1.27, 142.48 -0.32, 164.77 1.59 C187.06 3.5, 226.54 8.07, 243.12 11.48 C259.69 14.89, 265.61 21.39, 264.23 22.05 M185.51 1.59 C202.27 3.09, 220.11 8.05, 234 11.36 C247.89 14.68, 258.9 16.3, 268.86 21.46 C278.82 26.61, 290.13 35.86, 293.75 42.26 C297.36 48.67, 293.66 54.58, 290.54 59.86 C287.41 65.14, 283.74 69.27, 275.02 73.95 C266.3 78.63, 252.49 83.78, 238.21 87.93 C223.92 92.08, 206.95 96.94, 189.3 98.85 C171.65 100.76, 149.78 100.59, 132.33 99.38 C114.88 98.18, 99.81 94.38, 84.59 91.62 C69.37 88.87, 53.35 86.6, 40.98 82.83 C28.61 79.07, 17.52 74.76, 10.37 69.03 C3.22 63.31, -1.32 55.14, -1.92 48.49 C-2.52 41.84, 0.19 34.23, 6.74 29.13 C13.29 24.02, 25.35 22.05, 37.37 17.87 C49.39 13.69, 62.78 6.56, 78.87 4.03 C94.95 1.5, 116.21 2.99, 133.87 2.69 C151.52 2.39, 175.63 2.54, 184.81 2.21 C193.98 1.87, 189.07 -0.36, 188.92 0.69" stroke="#1e1e1e" stroke-width="2" fill="none"></path></g><g stroke-linecap="round" transform="translate(883.304976766435 887.88987476523) rotate(0 642.0773036784024 615.4275802560237)"><path d="M32 0 M32 0 C452.84 7.28, 871.91 7.1, 1252.15 0 M32 0 C387.01 -4.84, 742.25 -5.22, 1252.15 0 M1252.15 0 C1272.7 2.05, 1281.38 8.98, 1284.15 32 M1252.15 0 C1275.01 3.77, 1281.22 11.24, 1284.15 32 M1284.15 32 C1278.68 497.66, 1276.83 965, 1284.15 1198.86 M1284.15 32 C1283.08 472.93, 1282.39 914.59, 1284.15 1198.86 M1284.15 1198.86 C1287.78 1216.3, 1275.74 1232.21, 1252.15 1230.86 M1284.15 1198.86 C1281.32 1215.65, 1269.55 1235.44, 1252.15 1230.86 M1252.15 1230.86 C820.43 1227.52, 388.21 1227.95, 32 1230.86 M1252.15 1230.86 C821.54 1227.79, 391.35 1227.42, 32 1230.86 M32 1230.86 C13.01 1234.37, -2.69 1218.47, 0 1198.86 M32 1230.86 C9.38 1229.72, -1.07 1217.84, 0 1198.86 M0 1198.86 C7.89 943.14, 8.78 686.55, 0 32 M0 1198.86 C-6.09 916.68, -5.7 634.39, 0 32 M0 32 C1.12 12.09, 10.26 -2.81, 32 0 M0 32 C3.78 8.27, 11.61 -3.94, 32 0" stroke="#1971c2" stroke-width="2" fill="none"></path></g><g transform="translate(2755.6787326062104 793.8214501363176) rotate(0 64.24166870117188 17.5)"><text x="0" y="0" font-family="Virgil, Segoe UI Emoji" font-size="28px" fill="#e03131" text-anchor="start" style="white-space: pre;" direction="ltr" dominant-baseline="text-before-edge">Managers</text></g><g stroke-linecap="round"><g transform="translate(2742.1173923173083 834.5054710030239) rotate(0 82.29792968052175 2.780489142057206)"><path d="M-0.08 1.68 C27.75 1.72, 140.02 2.3, 168.17 2.64 M-3.57 0.12 C23.9 1.73, 138.02 4.36, 166.61 5.44" stroke="#1e1e1e" stroke-width="2" fill="none"></path></g></g><mask></mask><g stroke-linecap="round" transform="translate(2677.4402309394673 770.8714896474065) rotate(0 147.08838313347633 49.55105105560372)"><path d="M238.4 11.03 C252.96 13.82, 263.86 18.4, 272.75 23.34 C281.63 28.28, 288.62 34.93, 291.7 40.68 C294.78 46.42, 294.93 51.95, 291.24 57.81 C287.56 63.66, 279.46 70.18, 269.6 75.8 C259.74 81.42, 246.42 87.65, 232.1 91.51 C217.77 95.38, 200.84 97.77, 183.66 99 C166.48 100.22, 146.18 100.11, 129.02 98.88 C111.86 97.65, 96.38 94.32, 80.68 91.63 C64.99 88.93, 47.07 86.71, 34.83 82.69 C22.59 78.68, 12.82 73.23, 7.25 67.55 C1.69 61.86, 0.49 54.52, 1.44 48.59 C2.39 42.67, 6.18 37.35, 12.97 32.02 C19.76 26.68, 30.47 20.84, 42.2 16.57 C53.93 12.29, 67.4 9.17, 83.36 6.37 C99.32 3.57, 120.44 0.45, 137.95 -0.23 C155.47 -0.92, 169.07 -0.65, 188.43 2.25 C207.79 5.16, 240.58 13.95, 254.1 17.19 C267.62 20.43, 271 21.36, 269.53 21.71 M35.59 16.1 C44.77 10.96, 63.47 7.69, 79.01 4.59 C94.54 1.49, 111.03 -1.94, 128.8 -2.51 C146.58 -3.08, 168.95 -0.47, 185.65 1.19 C202.35 2.85, 215.32 3.53, 229.02 7.46 C242.72 11.39, 257.83 19.72, 267.86 24.77 C277.88 29.82, 285.41 32.42, 289.17 37.75 C292.93 43.08, 292.68 51.14, 290.4 56.75 C288.12 62.36, 284.12 66.15, 275.48 71.43 C266.85 76.7, 252.93 84.16, 238.6 88.42 C224.27 92.68, 206.5 94.97, 189.49 96.98 C172.48 98.99, 153.53 100.99, 136.55 100.49 C119.57 100, 103.92 96.83, 87.6 94 C71.28 91.18, 51.48 87.64, 38.64 83.53 C25.8 79.41, 16.66 74.41, 10.54 69.3 C4.43 64.2, 2.31 59.07, 1.97 52.9 C1.62 46.73, 2.8 38.64, 8.48 32.28 C14.15 25.92, 30.95 17.13, 36.03 14.75 C41.11 12.38, 37.46 17.31, 38.96 18.04" stroke="#1e1e1e" stroke-width="2" fill="none"></path></g><g transform="translate(3050.8986788953853 1001.9358645698536) rotate(0 205.9166717529297 192.5)"><text x="0" y="0" font-family="Virgil, Segoe UI Emoji" font-size="28px" fill="#1e1e1e" text-anchor="start" style="white-space: pre;" direction="ltr" dominant-baseline="text-before-edge">-&gt; Connection</text><text x="0" y="35" font-family="Virgil, Segoe UI Emoji" font-size="28px" fill="#1e1e1e" text-anchor="start" style="white-space: pre;" direction="ltr" dominant-baseline="text-before-edge">    -&gt; DBMS</text><text x="0" y="70" font-family="Virgil, Segoe UI Emoji" font-size="28px" fill="#1e1e1e" text-anchor="start" style="white-space: pre;" direction="ltr" dominant-baseline="text-before-edge">    -&gt; User</text><text x="0" y="105" font-family="Virgil, Segoe UI Emoji" font-size="28px" fill="#1e1e1e" text-anchor="start" style="white-space: pre;" direction="ltr" dominant-baseline="text-before-edge">    -&gt; Password</text><text x="0" y="140" font-family="Virgil, Segoe UI Emoji" font-size="28px" fill="#1e1e1e" text-anchor="start" style="white-space: pre;" direction="ltr" dominant-baseline="text-before-edge">    -&gt; Address</text><text x="0" y="175" font-family="Virgil, Segoe UI Emoji" font-size="28px" fill="#1e1e1e" text-anchor="start" style="white-space: pre;" direction="ltr" dominant-baseline="text-before-edge">-&gt; Filesystem</text><text x="0" y="210" font-family="Virgil, Segoe UI Emoji" font-size="28px" fill="#1e1e1e" text-anchor="start" style="white-space: pre;" direction="ltr" dominant-baseline="text-before-edge">    -&gt; Filepath for vdb</text><text x="0" y="245" font-family="Virgil, Segoe UI Emoji" font-size="28px" fill="#1e1e1e" text-anchor="start" style="white-space: pre;" direction="ltr" dominant-baseline="text-before-edge">    -&gt; Filepath for db</text><text x="0" y="280" font-family="Virgil, Segoe UI Emoji" font-size="28px" fill="#1e1e1e" text-anchor="start" style="white-space: pre;" direction="ltr" dominant-baseline="text-before-edge">    -&gt; Filepath for datasets</text><text x="0" y="315" font-family="Virgil, Segoe UI Emoji" font-size="28px" fill="#1e1e1e" text-anchor="start" style="white-space: pre;" direction="ltr" dominant-baseline="text-before-edge">    -&gt; Filetype for vdb</text><text x="0" y="350" font-family="Virgil, Segoe UI Emoji" font-size="28px" fill="#1e1e1e" text-anchor="start" style="white-space: pre;" direction="ltr" dominant-baseline="text-before-edge">    -&gt; Filetype for datasets </text></g><g transform="translate(993.8820591220976 1458.725247032457) rotate(0 62.32500076293945 17.5)"><text x="0" y="0" font-family="Virgil, Segoe UI Emoji" font-size="28px" fill="#f08c00" text-anchor="start" style="white-space: pre;" direction="ltr" dominant-baseline="text-before-edge">Validator</text></g><g transform="translate(967.8025585665166 1620.2022503659423) rotate(0 106.375 17.5)"><text x="0" y="0" font-family="Virgil, Segoe UI Emoji" font-size="28px" fill="#2f9e44" text-anchor="start" style="white-space: pre;" direction="ltr" dominant-baseline="text-before-edge">MySQLValidator</text></g><g transform="translate(927.1185376998101 1668.1885313882112) rotate(0 142.2916717529297 17.5)"><text x="0" y="0" font-family="Virgil, Segoe UI Emoji" font-size="28px" fill="#2f9e44" text-anchor="start" style="white-space: pre;" direction="ltr" dominant-baseline="text-before-edge">PostgreSQLValidator</text></g><g transform="translate(981.3638988554187 1728.692972677159) rotate(0 91.43333435058594 17.5)"><text x="0" y="0" font-family="Virgil, Segoe UI Emoji" font-size="28px" fill="#2f9e44" text-anchor="start" style="white-space: pre;" direction="ltr" dominant-baseline="text-before-edge">YamlValidator</text></g><g stroke-linecap="round" transform="translate(912.5140173886848 1595.1659298325849) rotate(0 160.64972342237843 95.45097203342607)"><path d="M32 0 M32 0 C129.54 0.37, 223.99 0.54, 289.3 0 M32 0 C86.68 0.39, 143.57 0.99, 289.3 0 M289.3 0 C307.42 3.48, 321.81 10.4, 321.3 32 M289.3 0 C311.03 -3.75, 325.04 11.93, 321.3 32 M321.3 32 C317.8 76.58, 322.99 122.32, 321.3 158.9 M321.3 32 C319.5 60.27, 317.13 92.95, 321.3 158.9 M321.3 158.9 C320.52 177.77, 309.57 189.73, 289.3 190.9 M321.3 158.9 C321.68 179.86, 311.6 187.23, 289.3 190.9 M289.3 190.9 C206.79 190.64, 117.86 188.07, 32 190.9 M289.3 190.9 C197.1 194.43, 106.05 194, 32 190.9 M32 190.9 C14.4 194.56, -3.4 179.36, 0 158.9 M32 190.9 C7.45 190.12, 1.96 183.55, 0 158.9 M0 158.9 C0.63 114.62, 2.34 67.72, 0 32 M0 158.9 C2.85 117.62, -0.01 80.58, 0 32 M0 32 C-0.64 10.73, 12.38 -0.7, 32 0 M0 32 C-3.35 10.75, 6.8 -1.54, 32 0" stroke="#1e1e1e" stroke-width="2" fill="none"></path></g><g stroke-linecap="round"><g transform="translate(1050.3032005393914 1506.49562794361) rotate(0 4.358657797671071 36.75136004881267)"><path d="M2.41 0.08 C3.38 12.19, 7.5 60.9, 8.44 72.87 M0.27 -2.34 C0.82 10.13, 6.2 63.16, 7.35 75.85" stroke="#1e1e1e" stroke-width="2" fill="none"></path></g><g transform="translate(1050.3032005393914 1506.49562794361) rotate(0 4.358657797671071 36.75136004881267)"><path d="M-5.44 51.78 C-2.15 61.7, 1.51 73.15, 9.69 78.35 M-5.26 47.14 C0.03 57.98, 3.23 68.3, 6.92 76.82" stroke="#1e1e1e" stroke-width="2" fill="none"></path></g><g transform="translate(1050.3032005393914 1506.49562794361) rotate(0 4.358657797671071 36.75136004881267)"><path d="M14.99 49.82 C10.24 60.86, 5.85 73.09, 9.69 78.35 M15.17 45.18 C12.61 56.45, 7.92 67.53, 6.92 76.82" stroke="#1e1e1e" stroke-width="2" fill="none"></path></g></g><mask></mask><g transform="translate(1058.720970798732 1919.949178561877) rotate(0 150.60833740234375 17.5)"><text x="0" y="0" font-family="Virgil, Segoe UI Emoji" font-size="28px" fill="#2f9e44" text-anchor="start" style="white-space: pre;" direction="ltr" dominant-baseline="text-before-edge">DummyDataGenerator</text></g><g stroke-linecap="round" transform="translate(1042.0300904431604 1902.2151181840818) rotate(0 167.95198357794106 35.46812075559001)"><path d="M17.73 0 M17.73 0 C127.2 -0.39, 237.46 -5.19, 318.17 0 M17.73 0 C85.58 5.37, 154.71 4.45, 318.17 0 M318.17 0 C327.25 3.36, 335.3 2.54, 335.9 17.73 M318.17 0 C329.9 1.8, 340.42 3.83, 335.9 17.73 M335.9 17.73 C333.28 33.99, 333.62 47.07, 335.9 53.2 M335.9 17.73 C337.01 24.86, 335.11 35.74, 335.9 53.2 M335.9 53.2 C332.67 61.41, 328.5 73.84, 318.17 70.94 M335.9 53.2 C335.05 64.64, 329.44 67.11, 318.17 70.94 M318.17 70.94 C242.76 71.97, 164.21 70.85, 17.73 70.94 M318.17 70.94 C251.46 73.44, 182.29 73.13, 17.73 70.94 M17.73 70.94 C9.57 69.53, -0.93 68.21, 0 53.2 M17.73 70.94 C8.5 75.07, -3.62 65.08, 0 53.2 M0 53.2 C-4.21 43.98, 1.23 34.09, 0 17.73 M0 53.2 C-0.17 40.74, -0.34 26.73, 0 17.73 M0 17.73 C2.78 6.84, 7.56 3.09, 17.73 0 M0 17.73 C2.79 1.74, 5.54 4.02, 17.73 0" stroke="#1e1e1e" stroke-width="2" fill="none"></path></g><g transform="translate(1410.8827261679592 1402.4467485514124) rotate(0 127.96666717529297 17.5)"><text x="0" y="0" font-family="Virgil, Segoe UI Emoji" font-size="28px" fill="#f08c00" text-anchor="start" style="white-space: pre;" direction="ltr" dominant-baseline="text-before-edge">DatabaseImporter</text></g><g transform="translate(1739.3225411429219 1404.064976029722) rotate(0 128.77499389648438 17.5)"><text x="0" y="0" font-family="Virgil, Segoe UI Emoji" font-size="28px" fill="#f08c00" text-anchor="start" style="white-space: pre;" direction="ltr" dominant-baseline="text-before-edge">DatabaseExporter</text></g><g transform="translate(1422.357706412415 1530.7578912848708) rotate(0 102.80000305175781 17.5)"><text x="0" y="0" font-family="Virgil, Segoe UI Emoji" font-size="28px" fill="#2f9e44" text-anchor="start" style="white-space: pre;" direction="ltr" dominant-baseline="text-before-edge">MySQLImporter</text></g><g transform="translate(1391.0623057457176 1577.700992284916) rotate(0 138.71665954589844 17.5)"><text x="0" y="0" font-family="Virgil, Segoe UI Emoji" font-size="28px" fill="#2f9e44" text-anchor="start" style="white-space: pre;" direction="ltr" dominant-baseline="text-before-edge">PostgreSQLImporter</text></g><g transform="translate(1766.445221720726 1539.6783789187425) rotate(0 103.60832977294922 17.5)"><text x="0" y="0" font-family="Virgil, Segoe UI Emoji" font-size="28px" fill="#2f9e44" text-anchor="start" style="white-space: pre;" direction="ltr" dominant-baseline="text-before-edge">MySQLExporter</text></g><g transform="translate(1728.8907409206893 1578.2760397410025) rotate(0 139.52499389648438 17.5)"><text x="0" y="0" font-family="Virgil, Segoe UI Emoji" font-size="28px" fill="#2f9e44" text-anchor="start" style="white-space: pre;" direction="ltr" dominant-baseline="text-before-edge">PostgreSQLExporter</text></g><g stroke-linecap="round" transform="translate(1378.5441454790391 1521.3692710848613) rotate(0 153.86905327792738 54.24536115560841)"><path d="M27.12 0 M27.12 0 C88.17 1.67, 148.69 5.37, 280.62 0 M27.12 0 C109.81 1.07, 194.74 -0.16, 280.62 0 M280.62 0 C300.7 -1.41, 311.4 6.62, 307.74 27.12 M280.62 0 C302.92 1.61, 309.31 7.05, 307.74 27.12 M307.74 27.12 C310.72 42.87, 307.27 62.86, 307.74 81.37 M307.74 27.12 C304.84 44.39, 306.26 63.54, 307.74 81.37 M307.74 81.37 C306.47 98.43, 296.33 109.7, 280.62 108.49 M307.74 81.37 C308.39 100.53, 300.27 104.5, 280.62 108.49 M280.62 108.49 C198.1 112.4, 116.47 108.99, 27.12 108.49 M280.62 108.49 C231.11 106.53, 178.39 106.48, 27.12 108.49 M27.12 108.49 C7.16 111.17, -3.2 97.35, 0 81.37 M27.12 108.49 C10.98 110.41, 1.55 102.04, 0 81.37 M0 81.37 C1.9 67.6, -1.27 51.54, 0 27.12 M0 81.37 C0.99 68.29, 0.98 50.34, 0 27.12 M0 27.12 C-3.66 7.82, 5.53 1.2, 27.12 0 M0 27.12 C-4.28 12.33, 12.75 1.91, 27.12 0" stroke="#1e1e1e" stroke-width="2" fill="none"></path></g><g stroke-linecap="round" transform="translate(1713.24304058734 1525.0738586076172) rotate(0 154.3906432890392 50.07264106671539)"><path d="M25.04 0 M25.04 0 C96.29 -1.09, 163.77 -4.23, 283.74 0 M25.04 0 C94.77 1.38, 166.71 3.24, 283.74 0 M283.74 0 C301.36 1.06, 305.17 12.28, 308.78 25.04 M283.74 0 C298.73 0.08, 307.53 10.54, 308.78 25.04 M308.78 25.04 C304.79 44.35, 307.56 58.81, 308.78 75.11 M308.78 25.04 C307.75 40.22, 306.5 54.45, 308.78 75.11 M308.78 75.11 C307.44 89.79, 297.61 98.02, 283.74 100.15 M308.78 75.11 C304.33 93.05, 303.45 101.56, 283.74 100.15 M283.74 100.15 C221.77 101.3, 156.02 102.12, 25.04 100.15 M283.74 100.15 C202.15 100.33, 117.74 101.11, 25.04 100.15 M25.04 100.15 C9.46 98.17, -2.75 88.93, 0 75.11 M25.04 100.15 C7.31 96.73, -2.9 92.05, 0 75.11 M0 75.11 C-1.2 59.99, 0.93 48.45, 0 25.04 M0 75.11 C-1.8 62.48, -2.31 46.21, 0 25.04 M0 25.04 C-2.19 6.75, 6.64 2.43, 25.04 0 M0 25.04 C0 9.88, 10.34 2.59, 25.04 0" stroke="#1e1e1e" stroke-width="2" fill="none"></path></g><g stroke-linecap="round"><g transform="translate(1533.4535358383466 1451.4762095959045) rotate(0 0.49038656120387714 30.19402652887311)"><path d="M1.75 -1.93 C1.89 8.13, 1.26 49.04, 0.08 58.96 M-0.74 3.2 C-0.68 13.82, -0.88 52.9, -0.74 62.32" stroke="#1e1e1e" stroke-width="2" fill="none"></path></g><g transform="translate(1533.4535358383466 1451.4762095959045) rotate(0 0.49038656120387714 30.19402652887311)"><path d="M-13.76 38.1 C-9.18 37.97, -8.33 46.75, -4.3 64.95 M-12.39 33.21 C-5.91 43.33, -3.38 51.79, 0.06 63.44" stroke="#1e1e1e" stroke-width="2" fill="none"></path></g><g transform="translate(1533.4535358383466 1451.4762095959045) rotate(0 0.49038656120387714 30.19402652887311)"><path d="M6.59 38.03 C5.58 38.18, 0.85 46.98, -4.3 64.95 M7.96 33.15 C8.36 43.65, 4.81 52.13, 0.06 63.44" stroke="#1e1e1e" stroke-width="2" fill="none"></path></g></g><mask></mask><g stroke-linecap="round"><g transform="translate(1874.0010499294651 1446.8353569408746) rotate(0 1.5857195718033381 27.70221095056479)"><path d="M-2.09 0.21 C-1.29 9.49, 4.65 44.91, 5.26 54.4 M1.97 -2.14 C2.49 7.65, 2.97 48.43, 3.85 57.54" stroke="#1e1e1e" stroke-width="2" fill="none"></path></g><g transform="translate(1874.0010499294651 1446.8353569408746) rotate(0 1.5857195718033381 27.70221095056479)"><path d="M-6.51 34.14 C-4.95 37.12, 2.29 50.03, 3.1 56.6 M-8.81 32.41 C-3.45 43.86, 3.22 50.99, 1.98 59.38" stroke="#1e1e1e" stroke-width="2" fill="none"></path></g><g transform="translate(1874.0010499294651 1446.8353569408746) rotate(0 1.5857195718033381 27.70221095056479)"><path d="M12.42 33.26 C7.99 36.24, 9.25 49.43, 3.1 56.6 M10.12 31.54 C7.93 43.12, 7.03 50.6, 1.98 59.38" stroke="#1e1e1e" stroke-width="2" fill="none"></path></g></g><mask></mask><g transform="translate(2310.240863116881 997.7631444809607) rotate(0 331.9083251953125 297.5)"><text x="0" y="0" font-family="Virgil, Segoe UI Emoji" font-size="28px" fill="#1e1e1e" text-anchor="start" style="white-space: pre;" direction="ltr" dominant-baseline="text-before-edge">-&gt; Name</text><text x="0" y="35" font-family="Virgil, Segoe UI Emoji" font-size="28px" fill="#1e1e1e" text-anchor="start" style="white-space: pre;" direction="ltr" dominant-baseline="text-before-edge">-&gt; Tables</text><text x="0" y="70" font-family="Virgil, Segoe UI Emoji" font-size="28px" fill="#1e1e1e" text-anchor="start" style="white-space: pre;" direction="ltr" dominant-baseline="text-before-edge">    -&gt; Columns</text><text x="0" y="105" font-family="Virgil, Segoe UI Emoji" font-size="28px" fill="#1e1e1e" text-anchor="start" style="white-space: pre;" direction="ltr" dominant-baseline="text-before-edge">        -&gt; Name</text><text x="0" y="140" font-family="Virgil, Segoe UI Emoji" font-size="28px" fill="#1e1e1e" text-anchor="start" style="white-space: pre;" direction="ltr" dominant-baseline="text-before-edge">        -&gt; Datatype - enum</text><text x="0" y="175" font-family="Virgil, Segoe UI Emoji" font-size="28px" fill="#1e1e1e" text-anchor="start" style="white-space: pre;" direction="ltr" dominant-baseline="text-before-edge">        -&gt; Default</text><text x="0" y="210" font-family="Virgil, Segoe UI Emoji" font-size="28px" fill="#1e1e1e" text-anchor="start" style="white-space: pre;" direction="ltr" dominant-baseline="text-before-edge">        -&gt; Auto_increment</text><text x="0" y="245" font-family="Virgil, Segoe UI Emoji" font-size="28px" fill="#1e1e1e" text-anchor="start" style="white-space: pre;" direction="ltr" dominant-baseline="text-before-edge">        -&gt; Not_null</text><text x="0" y="280" font-family="Virgil, Segoe UI Emoji" font-size="28px" fill="#1e1e1e" text-anchor="start" style="white-space: pre;" direction="ltr" dominant-baseline="text-before-edge">    -&gt; Primary Keys</text><text x="0" y="315" font-family="Virgil, Segoe UI Emoji" font-size="28px" fill="#1e1e1e" text-anchor="start" style="white-space: pre;" direction="ltr" dominant-baseline="text-before-edge">    -&gt; Foreign Keys</text><text x="0" y="350" font-family="Virgil, Segoe UI Emoji" font-size="28px" fill="#1e1e1e" text-anchor="start" style="white-space: pre;" direction="ltr" dominant-baseline="text-before-edge">    -&gt; Indices</text><text x="0" y="385" font-family="Virgil, Segoe UI Emoji" font-size="28px" fill="#1e1e1e" text-anchor="start" style="white-space: pre;" direction="ltr" dominant-baseline="text-before-edge">    -&gt; Datasets</text><text x="0" y="420" font-family="Virgil, Segoe UI Emoji" font-size="28px" fill="#1e1e1e" text-anchor="start" style="white-space: pre;" direction="ltr" dominant-baseline="text-before-edge">-&gt; Users</text><text x="0" y="455" font-family="Virgil, Segoe UI Emoji" font-size="28px" fill="#1e1e1e" text-anchor="start" style="white-space: pre;" direction="ltr" dominant-baseline="text-before-edge">    -&gt; Name</text><text x="0" y="490" font-family="Virgil, Segoe UI Emoji" font-size="28px" fill="#1e1e1e" text-anchor="start" style="white-space: pre;" direction="ltr" dominant-baseline="text-before-edge">    -&gt; Password</text><text x="0" y="525" font-family="Virgil, Segoe UI Emoji" font-size="28px" fill="#1e1e1e" text-anchor="start" style="white-space: pre;" direction="ltr" dominant-baseline="text-before-edge">    -&gt; Host</text><text x="0" y="560" font-family="Virgil, Segoe UI Emoji" font-size="28px" fill="#1e1e1e" text-anchor="start" style="white-space: pre;" direction="ltr" dominant-baseline="text-before-edge">    -&gt; Rights (for the beginning: Admin or CRUD)</text></g><g transform="translate(2516.5250580627553 1687.9786050731182) rotate(0 421.54998779296875 140)"><text x="0" y="0" font-family="Virgil, Segoe UI Emoji" font-size="28px" fill="#1e1e1e" text-anchor="start" style="white-space: pre;" direction="ltr" dominant-baseline="text-before-edge">-&gt; Simple collection of semantic mistakes by user</text><text x="0" y="35" font-family="Virgil, Segoe UI Emoji" font-size="28px" fill="#1e1e1e" text-anchor="start" style="white-space: pre;" direction="ltr" dominant-baseline="text-before-edge">    -&gt; Invalid names</text><text x="0" y="70" font-family="Virgil, Segoe UI Emoji" font-size="28px" fill="#1e1e1e" text-anchor="start" style="white-space: pre;" direction="ltr" dominant-baseline="text-before-edge">    -&gt; Invalid auto_increment</text><text x="0" y="105" font-family="Virgil, Segoe UI Emoji" font-size="28px" fill="#1e1e1e" text-anchor="start" style="white-space: pre;" direction="ltr" dominant-baseline="text-before-edge">    -&gt; Invalid Keys</text><text x="0" y="140" font-family="Virgil, Segoe UI Emoji" font-size="28px" fill="#1e1e1e" text-anchor="start" style="white-space: pre;" direction="ltr" dominant-baseline="text-before-edge">    -&gt; etc...</text><text x="0" y="175" font-family="Virgil, Segoe UI Emoji" font-size="28px" fill="#1e1e1e" text-anchor="start" style="white-space: pre;" direction="ltr" dominant-baseline="text-before-edge">-&gt; Filled by validator</text><text x="0" y="210" font-family="Virgil, Segoe UI Emoji" font-size="28px" fill="#1e1e1e" text-anchor="start" style="white-space: pre;" direction="ltr" dominant-baseline="text-before-edge">-&gt; Can be read by Apps to catch some errors ahead of time</text><text x="0" y="245" font-family="Virgil, Segoe UI Emoji" font-size="28px" fill="#1e1e1e" text-anchor="start" style="white-space: pre;" direction="ltr" dominant-baseline="text-before-edge">   when writng due to bad user data</text></g><g transform="translate(2524.092767672645 959.1654836587011) rotate(0 114.42500305175781 17.5)"><text x="0" y="0" font-family="Virgil, Segoe UI Emoji" font-size="28px" fill="#2f9e44" text-anchor="start" style="white-space: pre;" direction="ltr" dominant-baseline="text-before-edge">VirtualDatabase</text></g><g transform="translate(3054.7011514954083 954.224608584073) rotate(0 179.22500610351562 17.5)"><text x="0" y="0" font-family="Virgil, Segoe UI Emoji" font-size="28px" fill="#2f9e44" text-anchor="start" style="white-space: pre;" direction="ltr" dominant-baseline="text-before-edge">Settings (provided by app)</text></g><g transform="translate(2855.558565285307 1643.1218641175187) rotate(0 154.76666259765625 17.5)"><text x="0" y="0" font-family="Virgil, Segoe UI Emoji" font-size="28px" fill="#2f9e44" text-anchor="start" style="white-space: pre;" direction="ltr" dominant-baseline="text-before-edge">Error- and WarningList</text></g><g stroke-linecap="round" transform="translate(2263.2977621168347 895.5315023030836) rotate(0 614.2338126564318 558.7082820861383)"><path d="M32 0 M32 0 C373.61 9.06, 716.21 7.93, 1196.47 0 M32 0 C418.99 -1.36, 807.16 -1.5, 1196.47 0 M1196.47 0 C1218.32 3.93, 1232 12.64, 1228.47 32 M1196.47 0 C1216.46 4.18, 1228.27 10.75, 1228.47 32 M1228.47 32 C1227.76 358.32, 1227.32 683.53, 1228.47 1085.42 M1228.47 32 C1235.44 243.15, 1235.42 453.86, 1228.47 1085.42 M1228.47 1085.42 C1231.41 1106.47, 1221.73 1116.6, 1196.47 1117.42 M1228.47 1085.42 C1227.98 1108.18, 1217.54 1114.19, 1196.47 1117.42 M1196.47 1117.42 C743.72 1121.5, 289.35 1120.93, 32 1117.42 M1196.47 1117.42 C753.4 1117.53, 309 1116.88, 32 1117.42 M32 1117.42 C14.52 1121.38, -1.09 1108.78, 0 1085.42 M32 1117.42 C12.39 1115.18, 2.55 1110.48, 0 1085.42 M0 1085.42 C6.63 832.94, 8.27 578.06, 0 32 M0 1085.42 C3.51 809.03, 3.99 531.66, 0 32 M0 32 C2.62 8.22, 7.67 -2.12, 32 0 M0 32 C1.17 7.4, 13.26 -2.03, 32 0" stroke="#e03131" stroke-width="2" fill="none"></path></g><g stroke-linecap="round"><g transform="translate(2087.0003383611074 718.1908985251335) rotate(0 111.3450837497694 -0.7624323215751474)"><path d="M0.26 0.74 C37.02 -0.14, 183.57 -2.11, 220.71 -2.47 M-3.05 -1.33 C34.55 -0.57, 188.36 0.39, 225.74 0.95" stroke="#ffffff" stroke-width="4" fill="none"></path></g></g><mask></mask><g transform="translate(1609.2873065872743 1696.4786275339761) rotate(0 101.78333282470703 17.5)"><text x="0" y="0" font-family="Virgil, Segoe UI Emoji" font-size="28px" fill="#f08c00" text-anchor="start" style="white-space: pre;" direction="ltr" dominant-baseline="text-before-edge">DatasetWriter</text></g><g transform="translate(1587.2873065872743 1838.4786275339761) rotate(0 130.89166259765625 17.5)"><text x="0" y="0" font-family="Virgil, Segoe UI Emoji" font-size="28px" fill="#2f9e44" text-anchor="start" style="white-space: pre;" direction="ltr" dominant-baseline="text-before-edge">YamlDatasetWriter</text></g><g transform="translate(1593.2873065872743 1876.4786275339761) rotate(0 125.7249984741211 17.5)"><text x="0" y="0" font-family="Virgil, Segoe UI Emoji" font-size="28px" fill="#2f9e44" text-anchor="start" style="white-space: pre;" direction="ltr" dominant-baseline="text-before-edge">CsvDatasetWriter</text></g><g stroke-linecap="round" transform="translate(1565.2873065872743 1828.4786275339761) rotate(0 150.5 48.5)"><path d="M24.25 0 M24.25 0 C123.55 -2.66, 218.49 0.22, 276.75 0 M24.25 0 C77.52 -1.5, 127.16 -2.35, 276.75 0 M276.75 0 C293.04 1.64, 297.14 4.72, 301 24.25 M276.75 0 C297.37 -2.89, 304.94 6.01, 301 24.25 M301 24.25 C303.71 40.41, 296.69 54.09, 301 72.75 M301 24.25 C303.14 42.65, 302.14 62.98, 301 72.75 M301 72.75 C304.96 86.49, 290.27 95.53, 276.75 97 M301 72.75 C299.41 90.13, 290.09 98.84, 276.75 97 M276.75 97 C188.15 100.18, 101.52 96.17, 24.25 97 M276.75 97 C180.5 93.6, 84.64 93.05, 24.25 97 M24.25 97 C8.53 96.12, 2.87 88.76, 0 72.75 M24.25 97 C3.71 92.8, -0.93 84.59, 0 72.75 M0 72.75 C-0.64 58.44, 0.76 36.82, 0 24.25 M0 72.75 C-0.48 60.54, -1.36 43.56, 0 24.25 M0 24.25 C-2.66 10.27, 7.15 -3.01, 24.25 0 M0 24.25 C-3 4.05, 11.85 -4.32, 24.25 0" stroke="#1e1e1e" stroke-width="2" fill="none"></path></g><g stroke-linecap="round"><g transform="translate(1700.2873065872743 1743.4786275339761) rotate(0 1.3985084638077296 35.99665482461455)"><path d="M2.57 0.09 C2.86 12.09, 1.87 62.19, 1.56 74.32 M0.52 -2.33 C0.6 10.06, 0.37 56.99, 0.17 70.03" stroke="#1e1e1e" stroke-width="2" fill="none"></path></g><g transform="translate(1700.2873065872743 1743.4786275339761) rotate(0 1.3985084638077296 35.99665482461455)"><path d="M-9.7 43.98 C-4.53 50.95, -3.65 54.62, -0.87 66.46 M-11.25 42.74 C-6.07 50.62, -3.07 61.24, -0.84 70.47" stroke="#1e1e1e" stroke-width="2" fill="none"></path></g><g transform="translate(1700.2873065872743 1743.4786275339761) rotate(0 1.3985084638077296 35.99665482461455)"><path d="M10.82 44.17 C9.96 51.46, 4.82 55.08, -0.87 66.46 M9.27 42.93 C7.88 50.98, 4.31 61.54, -0.84 70.47" stroke="#1e1e1e" stroke-width="2" fill="none"></path></g></g><mask></mask><g transform="translate(2661.268972417398 2114.958042274888) rotate(0 343.375 37.5)"><text x="0" y="0" font-family="Virgil, Segoe UI Emoji" font-size="20px" fill="#1e1e1e" text-anchor="start" style="white-space: pre;" direction="ltr" dominant-baseline="text-before-edge">Note:</text><text x="0" y="25" font-family="Virgil, Segoe UI Emoji" font-size="20px" fill="#1e1e1e" text-anchor="start" style="white-space: pre;" direction="ltr" dominant-baseline="text-before-edge">- Implemented for later (maybe not all).</text><text x="0" y="50" font-family="Virgil, Segoe UI Emoji" font-size="20px" fill="#1e1e1e" text-anchor="start" style="white-space: pre;" direction="ltr" dominant-baseline="text-before-edge">- For the beginning errors when writing are handled by returning result</text></g><g stroke-linecap="round"><g transform="translate(2918.66254009359 2104.47595128355) rotate(0 -3.011066490533267 -54.01374152107246)"><path d="M-2.77 2.01 C-3.91 -15.89, -4.72 -87.83, -5.1 -105.37 M0.92 0.64 C-0.68 -18.35, -5.72 -92.06, -6.94 -110.04" stroke="#1e1e1e" stroke-width="2" fill="none"></path></g><g transform="translate(2918.66254009359 2104.47595128355) rotate(0 -3.011066490533267 -54.01374152107246)"><path d="M8.1 -81.58 C1.29 -91.7, -0.06 -99.18, -10.93 -108.97 M3.32 -84.29 C0.85 -93.95, -1.76 -101.12, -5.68 -110.65" stroke="#1e1e1e" stroke-width="2" fill="none"></path></g><g transform="translate(2918.66254009359 2104.47595128355) rotate(0 -3.011066490533267 -54.01374152107246)"><path d="M-12.38 -80.18 C-11.78 -90.4, -5.71 -98.39, -10.93 -108.97 M-17.15 -82.89 C-12.25 -92.88, -7.47 -100.55, -5.68 -110.65" stroke="#1e1e1e" stroke-width="2" fill="none"></path></g></g><mask></mask><g transform="translate(10 1002.9793343617007) rotate(0 366.4083251953125 87.5)"><text x="0" y="0" font-family="Virgil, Segoe UI Emoji" font-size="20px" fill="#1e1e1e" text-anchor="start" style="white-space: pre;" direction="ltr" dominant-baseline="text-before-edge">Note:</text><text x="0" y="25" font-family="Virgil, Segoe UI Emoji" font-size="20px" fill="#1e1e1e" text-anchor="start" style="white-space: pre;" direction="ltr" dominant-baseline="text-before-edge">- Remove this layer.</text><text x="0" y="50" font-family="Virgil, Segoe UI Emoji" font-size="20px" fill="#1e1e1e" text-anchor="start" style="white-space: pre;" direction="ltr" dominant-baseline="text-before-edge">- The distinction between file as a target and dbms as a target</text><text x="0" y="75" font-family="Virgil, Segoe UI Emoji" font-size="20px" fill="#1e1e1e" text-anchor="start" style="white-space: pre;" direction="ltr" dominant-baseline="text-before-edge">  doesn't matter since these are Interfaces.</text><text x="0" y="100" font-family="Virgil, Segoe UI Emoji" font-size="20px" fill="#1e1e1e" text-anchor="start" style="white-space: pre;" direction="ltr" dominant-baseline="text-before-edge">- This is more like Inheritance but I only care about the write() function.</text><text x="0" y="125" font-family="Virgil, Segoe UI Emoji" font-size="20px" fill="#1e1e1e" text-anchor="start" style="white-space: pre;" direction="ltr" dominant-baseline="text-before-edge">- The common data is stored in the state they get passed.</text><text x="0" y="150" font-family="Virgil, Segoe UI Emoji" font-size="20px" fill="#1e1e1e" text-anchor="start" style="white-space: pre;" direction="ltr" dominant-baseline="text-before-edge">  Anything else is handled by each implementation itself.</text></g><g stroke-linecap="round"><g transform="translate(760.6364203179639 1089.0905935042142) rotate(0 80.28971758376349 3.3224959245128503)"><path d="M1.95 0.76 C28.87 2.21, 134.45 6.6, 161.01 7.94 M-0.44 -1.29 C26.08 -0.63, 131.69 2.63, 158.3 3.57" stroke="#1e1e1e" stroke-width="2" fill="none"></path></g><g transform="translate(760.6364203179639 1089.0905935042142) rotate(0 80.28971758376349 3.3224959245128503)"><path d="M130.88 11.65 C139.58 9.06, 148.81 6.64, 156.17 5.82 M129.66 13.96 C139.62 9.51, 148.41 6.41, 158.93 3.02" stroke="#1e1e1e" stroke-width="2" fill="none"></path></g><g transform="translate(760.6364203179639 1089.0905935042142) rotate(0 80.28971758376349 3.3224959245128503)"><path d="M131.54 -8.86 C139.95 -5.65, 148.99 -2.28, 156.17 5.82 M130.33 -6.55 C139.93 -4.54, 148.52 -1.2, 158.93 3.02" stroke="#1e1e1e" stroke-width="2" fill="none"></path></g></g><mask></mask><g transform="translate(1919.6980248334041 134.16151626326575) rotate(0 277.9750061035156 25)"><text x="0" y="0" font-family="Virgil, Segoe UI Emoji" font-size="20px" fill="#1e1e1e" text-anchor="start" style="white-space: pre;" direction="ltr" dominant-baseline="text-before-edge">Sketches and notes on planning the db_mocker software</text><text x="0" y="25" font-family="Virgil, Segoe UI Emoji" font-size="20px" fill="#1e1e1e" text-anchor="start" style="white-space: pre;" direction="ltr" dominant-baseline="text-before-edge">consisting of a library and threeui apps</text></g><g transform="translate(1292.3176320816885 586.7269768341129) rotate(0 253.5749969482422 25)"><text x="0" y="0" font-family="Virgil, Segoe UI Emoji" font-size="20px" fill="#1e1e1e" text-anchor="start" style="white-space: pre;" direction="ltr" dominant-baseline="text-before-edge">Systems (structs) handling the processing of state</text><text x="0" y="25" font-family="Virgil, Segoe UI Emoji" font-size="20px" fill="#1e1e1e" text-anchor="start" style="white-space: pre;" direction="ltr" dominant-baseline="text-before-edge">and I/O of state in and from DBMS / filesystem</text></g><g stroke-linecap="round"><g transform="translate(1526.695856809734 646.6881873808898) rotate(0 -0.7341809406984794 51.02098084440135)"><path d="M0.25 1.88 C0.41 18.41, 1.4 82.25, 1.62 98.16 M-3.06 0.43 C-3.36 17.51, -1.23 85.04, -0.8 101.61" stroke="#1e1e1e" stroke-width="2" fill="none"></path></g><g transform="translate(1526.695856809734 646.6881873808898) rotate(0 -0.7341809406984794 51.02098084440135)"><path d="M-9.17 73.23 C-8.96 82.13, -6.52 88.97, -3.68 105.55 M-10.31 74.9 C-10.04 80.13, -4.2 90.06, -0.16 101.06" stroke="#1e1e1e" stroke-width="2" fill="none"></path></g><g transform="translate(1526.695856809734 646.6881873808898) rotate(0 -0.7341809406984794 51.02098084440135)"><path d="M11.34 72.66 C4.9 81.78, 0.7 88.8, -3.68 105.55 M10.2 74.32 C5.12 79.53, 5.59 89.62, -0.16 101.06" stroke="#1e1e1e" stroke-width="2" fill="none"></path></g></g><mask></mask><g transform="translate(2574.2883135717766 572.3362863028863) rotate(0 260.0666809082031 25)"><text x="0" y="0" font-family="Virgil, Segoe UI Emoji" font-size="20px" fill="#1e1e1e" text-anchor="start" style="white-space: pre;" direction="ltr" dominant-baseline="text-before-edge">Systems (structs) handling the storingand access of</text><text x="0" y="25" font-family="Virgil, Segoe UI Emoji" font-size="20px" fill="#1e1e1e" text-anchor="start" style="white-space: pre;" direction="ltr" dominant-baseline="text-before-edge">runtime state in process memory (e.g. Vec, HashMap).</text></g><g stroke-linecap="round"><g transform="translate(2826.12539786824 634.6959452715344) rotate(0 1.1127251782802432 61.28273617625878)"><path d="M0.72 2.24 C1 22.25, -1.14 98.41, -0.77 118.22 M-2.33 0.99 C-0.94 21.6, 3.82 102.26, 4.56 121.58" stroke="#1e1e1e" stroke-width="2" fill="none"></path></g><g transform="translate(2826.12539786824 634.6959452715344) rotate(0 1.1127251782802432 61.28273617625878)"><path d="M-3.91 91.12 C-5.72 102.23, 0.9 102.29, 4.5 124.95 M-8.46 93.82 C-1.79 106.64, 3.69 117.7, 5.21 123.1" stroke="#1e1e1e" stroke-width="2" fill="none"></path></g><g transform="translate(2826.12539786824 634.6959452715344) rotate(0 1.1127251782802432 61.28273617625878)"><path d="M16.59 90.09 C10.42 101.52, 12.7 101.8, 4.5 124.95 M12.04 92.79 C10.52 106.21, 7.82 117.68, 5.21 123.1" stroke="#1e1e1e" stroke-width="2" fill="none"></path></g></g><mask></mask></svg>