<svg version="1.1" xmlns="http://www.w3.org/2000/svg" viewBox="0 0 2662.3749962914508 1628.9160462779782" width="2662.3749962914508" height="1628.9160462779782" filter="invert(93%) hue-rotate(180deg)">
  <!-- svg-source:excalidraw -->
  
  <defs>
    <style class="style-fonts">
      @font-face {
        font-family: "Virgil";
        src: url("https://excalidraw.com/Virgil.woff2");
      }
      @font-face {
        font-family: "Cascadia";
        src: url("https://excalidraw.com/Cascadia.woff2");
      }
    </style>
    
  </defs>
  <rect x="0" y="0" width="2662.3749962914508" height="1628.9160462779782" fill="#ffffff"></rect><g stroke-linecap="round" transform="translate(1091.7776830454882 253.39339718776154) rotate(0 235.23709501133976 58.41808124450125)"><path d="M29.96 -3.27 L448.73 2.91 L464.51 9.89 L470.53 15.52 L473.42 31.31 L471.14 94.18 L462.37 109.22 L454.43 114.28 L443.84 119.72 L22.95 116.28 L3.74 107.9 L3.36 103.22 L-0.98 29.15 L3.73 16.82 L6.74 7.81 L15.68 1.92 L26.88 -3.87" stroke="none" stroke-width="0" fill="#a18072"></path><path d="M29.21 0 M29.21 0 C133.02 4.6, 234.39 4.89, 441.27 0 M29.21 0 C114.32 -1.77, 199.79 -1.03, 441.27 0 M441.27 0 C457.91 -0.66, 470.37 9, 470.47 29.21 M441.27 0 C457.21 -4.33, 471.13 9.62, 470.47 29.21 M470.47 29.21 C468.46 43.88, 468.69 64.13, 470.47 87.63 M470.47 29.21 C468.11 51.59, 469.65 73.08, 470.47 87.63 M470.47 87.63 C468.67 106.11, 461.5 112.96, 441.27 116.84 M470.47 87.63 C468.91 109.14, 456.56 119.11, 441.27 116.84 M441.27 116.84 C328.53 113.29, 218.05 115.9, 29.21 116.84 M441.27 116.84 C314.93 115.72, 186.47 115.97, 29.21 116.84 M29.21 116.84 C11.57 117.87, -0.44 106.81, 0 87.63 M29.21 116.84 C6.67 118.57, 0.21 103.22, 0 87.63 M0 87.63 C-3.25 73.05, 0.58 60.59, 0 29.21 M0 87.63 C-2.47 72.27, -1.86 56.51, 0 29.21 M0 29.21 C3.53 10.13, 8.35 1.68, 29.21 0 M0 29.21 C-3.44 10.99, 5.64 -3.81, 29.21 0" stroke="#ffd8a8" stroke-width="4" fill="none"></path></g><g stroke-linecap="round" transform="translate(2157.907665757638 563.2178637880625) rotate(0 189.33717403351739 158.56336337793198)"><path d="M32 0 M32 0 C117.62 -1.82, 200.5 2.01, 346.67 0 M32 0 C127.91 2.46, 224.62 1.73, 346.67 0 M346.67 0 C366.59 1.36, 377.5 14.08, 378.67 32 M346.67 0 C364.41 -4.39, 380.06 6.2, 378.67 32 M378.67 32 C380.98 94.96, 383.26 156.46, 378.67 285.13 M378.67 32 C381.69 107.87, 381.21 185.07, 378.67 285.13 M378.67 285.13 C382.11 310.42, 370.28 319.3, 346.67 317.13 M378.67 285.13 C383.25 305.91, 367.17 315.79, 346.67 317.13 M346.67 317.13 C274.73 321.36, 202.63 320.79, 32 317.13 M346.67 317.13 C268.57 317.53, 187.56 315.64, 32 317.13 M32 317.13 C13.24 316.28, 2 308.67, 0 285.13 M32 317.13 C9.63 319.35, -1.06 305.68, 0 285.13 M0 285.13 C-0.27 195.72, -0.24 105.8, 0 32 M0 285.13 C4.51 205.87, 2.99 127.23, 0 32 M0 32 C-1 10.02, 8.58 -1.38, 32 0 M0 32 C-2.52 8.92, 13.67 2.11, 32 0" stroke="#1e1e1e" stroke-width="2" fill="none"></path></g><g stroke-linecap="round" transform="translate(1598.7631738459813 1206.8599374997993) rotate(0 438.1356093337595 183.07809390017803)"><path d="M32 0 M32 0 C331.29 1.31, 629.33 0.97, 844.27 0 M32 0 C202.76 5.61, 374.54 5.3, 844.27 0 M844.27 0 C862.66 1.16, 877.44 8.1, 876.27 32 M844.27 0 C866.06 0.82, 872.05 9.21, 876.27 32 M876.27 32 C877.49 104.7, 879.57 172.52, 876.27 334.16 M876.27 32 C878.64 96.95, 876.7 165.01, 876.27 334.16 M876.27 334.16 C877.24 353.7, 861.83 366.63, 844.27 366.16 M876.27 334.16 C872.09 357.3, 869 368.34, 844.27 366.16 M844.27 366.16 C575.17 369.01, 306.28 370.32, 32 366.16 M844.27 366.16 C666.23 368.28, 488.94 367.2, 32 366.16 M32 366.16 C10.94 369.87, 0.57 357.59, 0 334.16 M32 366.16 C11.25 362.76, 2.16 352.43, 0 334.16 M0 334.16 C-2.74 249.2, 0.35 169.3, 0 32 M0 334.16 C-1.6 250.5, 0.19 168.21, 0 32 M0 32 C3.61 14.22, 10.16 3.17, 32 0 M0 32 C1.76 6.3, 15.24 4.12, 32 0" stroke="#1e1e1e" stroke-width="2" fill="none"></path></g><g stroke-linecap="round" transform="translate(1420.3793900458086 563.2178637880627) rotate(0 352.59484751145396 313.4755966780827)"><path d="M32 0 M32 0 C263.2 0.87, 492.77 2.57, 673.19 0 M32 0 C210.87 2.67, 389.05 2.38, 673.19 0 M673.19 0 C693.57 -3.06, 705.69 12.35, 705.19 32 M673.19 0 C696.16 0.56, 703.93 8.91, 705.19 32 M705.19 32 C703.2 213.89, 703.77 397.15, 705.19 594.95 M705.19 32 C706.91 223.59, 707.01 414.7, 705.19 594.95 M705.19 594.95 C706.29 614.59, 691.72 628.2, 673.19 626.95 M705.19 594.95 C709.46 614.98, 697.29 628.12, 673.19 626.95 M673.19 626.95 C525.93 627.35, 378.36 627.02, 32 626.95 M673.19 626.95 C432.99 623.68, 192 624.4, 32 626.95 M32 626.95 C9.32 628.18, 1.9 617.16, 0 594.95 M32 626.95 C6.55 628.17, 0.42 616.99, 0 594.95 M0 594.95 C2.05 408.27, 3.95 219.93, 0 32 M0 594.95 C4.57 392.03, 4.63 189.59, 0 32 M0 32 C3.72 9.53, 8.27 1.14, 32 0 M0 32 C-1.46 12.75, 12.3 -3.54, 32 0" stroke="#1e1e1e" stroke-width="2" fill="none"></path></g><g stroke-linecap="round" transform="translate(1052.4693781551496 10) rotate(0 266 42.5)"><path d="M21.25 0 M21.25 0 C154.06 0.74, 288.26 1.03, 510.75 0 M21.25 0 C136.2 -1.85, 252.41 -2.44, 510.75 0 M510.75 0 C527.12 3.78, 535.02 3.34, 532 21.25 M510.75 0 C522.34 2.86, 531.9 11.34, 532 21.25 M532 21.25 C530.83 38.31, 533.41 49.88, 532 63.75 M532 21.25 C530.27 37.97, 530.6 54.61, 532 63.75 M532 63.75 C530.15 77.06, 522.54 84.21, 510.75 85 M532 63.75 C530.15 81.8, 528.4 89.29, 510.75 85 M510.75 85 C357.96 85.36, 204.79 85.05, 21.25 85 M510.75 85 C400.51 86.51, 289.12 87.11, 21.25 85 M21.25 85 C9.24 83.86, -1.18 74.3, 0 63.75 M21.25 85 C11.13 84.61, -3.88 81.17, 0 63.75 M0 63.75 C-2.32 52.44, 1.23 37.53, 0 21.25 M0 63.75 C1.85 50.96, 0.16 41.43, 0 21.25 M0 21.25 C2.22 10.99, 7.81 -0.46, 21.25 0 M0 21.25 C1.84 4.3, 6.84 1.73, 21.25 0" stroke="#1e1e1e" stroke-width="4" fill="none"></path></g><g transform="translate(1070.4693781551496 30) rotate(0 246.14999389648438 22.5)"><text x="0" y="0" font-family="Virgil, Segoe UI Emoji" font-size="36px" fill="#1e1e1e" text-anchor="start" style="white-space: pre;" direction="ltr" dominant-baseline="text-before-edge">Planning for db_mocker tool</text></g><g transform="translate(1266.9689585119572 281.5092182766996) rotate(0 59.79999923706055 22.5)"><text x="0" y="0" font-family="Virgil, Segoe UI Emoji" font-size="36px" fill="#ffffff" text-anchor="start" style="white-space: pre;" direction="ltr" dominant-baseline="text-before-edge">Library</text></g><g transform="translate(286.44270588915833 573.8655641214112) rotate(0 63.42499923706055 17.5)"><text x="0" y="0" font-family="Virgil, Segoe UI Emoji" font-size="28px" fill="#f08c00" text-anchor="start" style="white-space: pre;" direction="ltr" dominant-baseline="text-before-edge">VdbWriter</text></g><g transform="translate(911.3075392008764 573.649664010295) rotate(0 70.44999694824219 17.5)"><text x="0" y="0" font-family="Virgil, Segoe UI Emoji" font-size="28px" fill="#f08c00" text-anchor="start" style="white-space: pre;" direction="ltr" dominant-baseline="text-before-edge">VdbReader</text></g><g transform="translate(63.20218113338592 738.4721075215667) rotate(0 132.64166259765625 17.5)"><text x="0" y="0" font-family="Virgil, Segoe UI Emoji" font-size="28px" fill="#f08c00" text-anchor="start" style="white-space: pre;" direction="ltr" dominant-baseline="text-before-edge">VdbDatabaseWriter</text></g><g transform="translate(1046.9209420898978 735.3425674548968) rotate(0 92.89167022705078 17.5)"><text x="0" y="0" font-family="Virgil, Segoe UI Emoji" font-size="28px" fill="#f08c00" text-anchor="start" style="white-space: pre;" direction="ltr" dominant-baseline="text-before-edge">VdbFileReader</text></g><g transform="translate(690.1533744895514 734.2993874326736) rotate(0 139.6666717529297 17.5)"><text x="0" y="0" font-family="Virgil, Segoe UI Emoji" font-size="28px" fill="#f08c00" text-anchor="start" style="white-space: pre;" direction="ltr" dominant-baseline="text-before-edge">VdbDatabaseReader</text></g><g stroke-linecap="round"><g transform="translate(322.20435863287594 623.7223050770104) rotate(0 -29.411464152761255 57.363817529551795)"><path d="M-0.43 1.98 C-9.81 19.96, -47.19 92.42, -56.42 110.54 M-4.11 0.58 C-13.8 20.25, -49.57 95.27, -58.39 114.15" stroke="#1e1e1e" stroke-width="4" fill="none"></path></g><g transform="translate(322.20435863287594 623.7223050770104) rotate(0 -29.411464152761255 57.363817529551795)"><path d="M-52.79 84.97 C-55.93 94.61, -56.54 105.33, -57.5 111.58 M-54.03 85.62 C-57.03 96.77, -56.97 104.43, -59.42 114.04" stroke="#1e1e1e" stroke-width="4" fill="none"></path></g><g transform="translate(322.20435863287594 623.7223050770104) rotate(0 -29.411464152761255 57.363817529551795)"><path d="M-34.24 93.75 C-43 100.74, -49.09 108.88, -57.5 111.58 M-35.48 94.4 C-45.02 102.55, -51.6 107.06, -59.42 114.04" stroke="#1e1e1e" stroke-width="4" fill="none"></path></g></g><mask></mask><g transform="translate(388.6743480670352 737.4289274993433) rotate(0 85.86666870117188 17.5)"><text x="0" y="0" font-family="Virgil, Segoe UI Emoji" font-size="28px" fill="#f08c00" text-anchor="start" style="white-space: pre;" direction="ltr" dominant-baseline="text-before-edge">VdbFileWriter</text></g><g stroke-linecap="round"><g transform="translate(385.7377960058068 617.463224943671) rotate(0 37.1772051026054 55.05440391885486)"><path d="M1.84 -0.24 C14 19.02, 62.69 94.72, 74.95 112.95 M-0.6 -2.85 C10.93 15.92, 59.97 90.17, 72.32 109.23" stroke="#1e1e1e" stroke-width="4" fill="none"></path></g><g transform="translate(385.7377960058068 617.463224943671) rotate(0 37.1772051026054 55.05440391885486)"><path d="M47.95 90.22 C60.3 97.3, 63.86 105.58, 69.82 107.92 M50.07 93.17 C57.13 96.64, 65.45 104.37, 73.38 108.97" stroke="#1e1e1e" stroke-width="4" fill="none"></path></g><g transform="translate(385.7377960058068 617.463224943671) rotate(0 37.1772051026054 55.05440391885486)"><path d="M65.12 78.98 C70.86 90.47, 68.03 102.94, 69.82 107.92 M67.24 81.93 C68.67 89.01, 71.17 100.54, 73.38 108.97" stroke="#1e1e1e" stroke-width="4" fill="none"></path></g></g><mask></mask><g stroke-linecap="round"><g transform="translate(915.48025928977 617.463224943671) rotate(0 -32.90752931393217 53.5343983595543)"><path d="M1.64 1.11 C-9.64 18.87, -54.61 88, -65.76 105.34 M-0.91 -0.76 C-12.65 17.4, -56.56 89.87, -67.46 107.83" stroke="#1e1e1e" stroke-width="4" fill="none"></path></g><g transform="translate(915.48025928977 617.463224943671) rotate(0 -32.90752931393217 53.5343983595543)"><path d="M-60.02 79.83 C-67.02 91.45, -69.48 103.69, -69.67 111.72 M-59.68 78.22 C-62.91 88.15, -64.18 97.3, -66.09 108.16" stroke="#1e1e1e" stroke-width="4" fill="none"></path></g><g transform="translate(915.48025928977 617.463224943671) rotate(0 -32.90752931393217 53.5343983595543)"><path d="M-42.47 90.48 C-55.85 98.38, -64.77 106.7, -69.67 111.72 M-42.14 88.86 C-50.82 95.57, -57.4 101.49, -66.09 108.16" stroke="#1e1e1e" stroke-width="4" fill="none"></path></g></g><mask></mask><g stroke-linecap="round"><g transform="translate(1029.575859014894 618.5064049658943) rotate(0 32.29722673330184 54.99511062730255)"><path d="M-0.09 1.38 C11.64 19.63, 57.04 92.69, 68.18 110.33 M-3.58 -0.34 C8.12 17.04, 55.39 87.99, 66.84 106.32" stroke="#1e1e1e" stroke-width="4" fill="none"></path></g><g transform="translate(1029.575859014894 618.5064049658943) rotate(0 32.29722673330184 54.99511062730255)"><path d="M44.86 90.61 C50.93 92.6, 51.75 99.55, 69.04 110.23 M42.5 88.88 C50.71 92.66, 60.23 101.94, 66.52 107.24" stroke="#1e1e1e" stroke-width="4" fill="none"></path></g><g transform="translate(1029.575859014894 618.5064049658943) rotate(0 32.29722673330184 54.99511062730255)"><path d="M62.08 79.44 C64.41 83.9, 61.42 93.32, 69.04 110.23 M59.72 77.72 C62.41 84.98, 66.19 97.98, 66.52 107.24" stroke="#1e1e1e" stroke-width="4" fill="none"></path></g></g><mask></mask><g transform="translate(117.44754228899251 898.0786509217215) rotate(0 85.15833282470703 17.5)"><text x="0" y="0" font-family="Virgil, Segoe UI Emoji" font-size="28px" fill="#2f9e44" text-anchor="start" style="white-space: pre;" direction="ltr" dominant-baseline="text-before-edge">MySQLWriter</text></g><g transform="translate(760.0464359785069 886.603670677266) rotate(0 92.18333435058594 17.5)"><text x="0" y="0" font-family="Virgil, Segoe UI Emoji" font-size="28px" fill="#2f9e44" text-anchor="start" style="white-space: pre;" direction="ltr" dominant-baseline="text-before-edge">MySQLReader</text></g><g transform="translate(421.01292875595414 898.0786509217215) rotate(0 70.21666717529286 17.5)"><text x="0" y="0" font-family="Virgil, Segoe UI Emoji" font-size="28px" fill="#2f9e44" text-anchor="start" style="white-space: pre;" direction="ltr" dominant-baseline="text-before-edge">YamlWriter</text></g><g transform="translate(1064.6550024676922 891.8195707883823) rotate(0 77.24166870117188 17.5)"><text x="0" y="0" font-family="Virgil, Segoe UI Emoji" font-size="28px" fill="#2f9e44" text-anchor="start" style="white-space: pre;" direction="ltr" dominant-baseline="text-before-edge">YamlReader</text></g><g transform="translate(77.8067014445096 969.0148924329015) rotate(0 121.07499694824219 17.5)"><text x="0" y="0" font-family="Virgil, Segoe UI Emoji" font-size="28px" fill="#2f9e44" text-anchor="start" style="white-space: pre;" direction="ltr" dominant-baseline="text-before-edge">PostgreSQLWriter</text></g><g transform="translate(711.0169749340143 951.2808320551063) rotate(0 128.10000610351562 17.5)"><text x="0" y="0" font-family="Virgil, Segoe UI Emoji" font-size="28px" fill="#2f9e44" text-anchor="start" style="white-space: pre;" direction="ltr" dominant-baseline="text-before-edge">PostgreSQLReader</text></g><g stroke-linecap="round" transform="translate(53.813560933375584 865.740070232801) rotate(0 147.60997314458814 85.54076182230551)"><path d="M32 0 M32 0 C120.38 6.42, 210.31 1.56, 263.22 0 M32 0 C106.72 3.87, 178.51 2.16, 263.22 0 M263.22 0 C286.43 -1.74, 293.17 11.66, 295.22 32 M263.22 0 C280.21 2.36, 291.69 14.35, 295.22 32 M295.22 32 C297.16 65.36, 295.29 92.52, 295.22 139.08 M295.22 32 C294.6 73.23, 293.48 114.2, 295.22 139.08 M295.22 139.08 C293.02 157.05, 280.79 168.26, 263.22 171.08 M295.22 139.08 C296.99 160.65, 284.66 174.21, 263.22 171.08 M263.22 171.08 C214.58 170.8, 156.54 173.65, 32 171.08 M263.22 171.08 C210.74 171.24, 159.21 170.63, 32 171.08 M32 171.08 C10.07 174.92, 1.95 157.62, 0 139.08 M32 171.08 C13.45 173.35, 1.25 163.41, 0 139.08 M0 139.08 C-2.4 117.83, -2.25 99.26, 0 32 M0 139.08 C0.33 104.74, -2.98 67.96, 0 32 M0 32 C-0.23 13.86, 11.32 2.33, 32 0 M0 32 C2.46 7.52, 8.54 0.22, 32 0" stroke="#1e1e1e" stroke-width="4" fill="none"></path></g><g stroke-linecap="round"><g transform="translate(200.067957582055 780.199308410496) rotate(0 -4.554517315718385 42.92967987427704)"><path d="M0.33 2.3 C-1.54 16.75, -8.37 71.71, -9.44 84.77 M-2.93 1.09 C-4.12 14.96, -3.6 67.42, -4.35 81.04" stroke="#1e1e1e" stroke-width="2" fill="none"></path></g><g transform="translate(200.067957582055 780.199308410496) rotate(0 -4.554517315718385 42.92967987427704)"><path d="M-10.76 49.22 C-7.52 64.33, -9.85 73.11, -0.97 82.04 M-12.13 50.93 C-10.26 64.26, -6.25 71.57, -2.81 79.69" stroke="#1e1e1e" stroke-width="2" fill="none"></path></g><g transform="translate(200.067957582055 780.199308410496) rotate(0 -4.554517315718385 42.92967987427704)"><path d="M9.76 49.62 C5.52 64.63, -4.29 73.27, -0.97 82.04 M8.39 51.33 C2.78 64.41, -0.68 71.56, -2.81 79.69" stroke="#1e1e1e" stroke-width="2" fill="none"></path></g></g><mask></mask><g stroke-linecap="round" transform="translate(699.5419946895595 868.8696102994708) rotate(0 139.7861229779137 67.8067014445104)"><path d="M32 0 M32 0 C87.32 -0.86, 143.31 -1.19, 247.57 0 M32 0 C78.82 -0.81, 125.13 -3.03, 247.57 0 M247.57 0 C267.09 2.78, 281.52 10.4, 279.57 32 M247.57 0 C269.52 3.86, 277.33 7.1, 279.57 32 M279.57 32 C278.63 52.21, 278.98 78.67, 279.57 103.61 M279.57 32 C279.57 54.48, 279.73 77.71, 279.57 103.61 M279.57 103.61 C275.73 128.64, 268.59 138.82, 247.57 135.61 M279.57 103.61 C279.96 128.45, 269.04 133.23, 247.57 135.61 M247.57 135.61 C185.6 134.3, 131.1 135.75, 32 135.61 M247.57 135.61 C171.43 134.98, 96.55 134.64, 32 135.61 M32 135.61 C14.45 136.61, -2.96 125.2, 0 103.61 M32 135.61 C12.22 136.75, -4.17 126.84, 0 103.61 M0 103.61 C-3.85 75.64, -4.14 53.52, 0 32 M0 103.61 C2.62 78.89, -0.58 52.35, 0 32 M0 32 C1.23 11.75, 7.06 -2.56, 32 0 M0 32 C-2.97 9.13, 7.66 -0.95, 32 0" stroke="#1e1e1e" stroke-width="2" fill="none"></path></g><g stroke-linecap="round"><g transform="translate(836.1985776008028 782.2856684549423) rotate(0 1.092406145583027 42.59887613080065)"><path d="M-0.1 0.44 C0.96 14.65, 4.95 72.35, 5.79 86.99 M-3.61 -1.79 C-2.91 11.43, 2.3 68.43, 3.3 82.76" stroke="#1e1e1e" stroke-width="2" fill="none"></path></g><g transform="translate(836.1985776008028 782.2856684549423) rotate(0 1.092406145583027 42.59887613080065)"><path d="M-8.59 54.83 C-3.31 61.23, 2.03 69.79, 1.99 84.52 M-9.38 56.75 C-7 64.27, -2.25 73.89, 2.37 81.01" stroke="#1e1e1e" stroke-width="2" fill="none"></path></g><g transform="translate(836.1985776008028 782.2856684549423) rotate(0 1.092406145583027 42.59887613080065)"><path d="M11.86 53.16 C11.45 60.01, 11.07 69.04, 1.99 84.52 M11.08 55.09 C7.21 62.8, 5.76 72.92, 2.37 81.01" stroke="#1e1e1e" stroke-width="2" fill="none"></path></g></g><mask></mask><g stroke-linecap="round" transform="translate(399.10614828926646 866.7832502550244) rotate(0 91.27825194453317 44.33515094448762)"><path d="M22.17 0 M22.17 0 C59.94 -2.22, 100.5 0.95, 160.39 0 M22.17 0 C68.76 -2.28, 115.42 -2.73, 160.39 0 M160.39 0 C178.62 3.79, 183.89 9.97, 182.56 22.17 M160.39 0 C178.18 -4.08, 179.13 4.25, 182.56 22.17 M182.56 22.17 C179.82 34.33, 179.72 50.83, 182.56 66.5 M182.56 22.17 C183.5 36.55, 184.5 47.51, 182.56 66.5 M182.56 66.5 C182.88 77.75, 172.8 91.42, 160.39 88.67 M182.56 66.5 C180.43 77.44, 172.97 84.3, 160.39 88.67 M160.39 88.67 C129.33 89.56, 99 90.45, 22.17 88.67 M160.39 88.67 C113.59 90.3, 66.53 89.13, 22.17 88.67 M22.17 88.67 C8.14 85.04, 3.39 83.79, 0 66.5 M22.17 88.67 C9.18 92.37, -2.12 84.02, 0 66.5 M0 66.5 C-0.42 53.44, -2.35 36.03, 0 22.17 M0 66.5 C0.33 55.38, 0.91 44.66, 0 22.17 M0 22.17 C2.03 8.84, 10.47 -3.69, 22.17 0 M0 22.17 C3.67 7.72, 3.1 -1.25, 22.17 0" stroke="#1e1e1e" stroke-width="2" fill="none"></path></g><g stroke-linecap="round" transform="translate(1045.8777620676738 868.869610299471) rotate(0 94.92938202231448 39.64084084448291)"><path d="M19.82 0 M19.82 0 C52.37 3.29, 81.4 -2.93, 170.04 0 M19.82 0 C76.81 3.35, 137.19 3.76, 170.04 0 M170.04 0 C179.82 2.03, 193.19 6.03, 189.86 19.82 M170.04 0 C183.6 0.94, 190.05 2.39, 189.86 19.82 M189.86 19.82 C188.09 35.46, 191.06 53.33, 189.86 59.46 M189.86 19.82 C187.91 35, 190.18 49.45, 189.86 59.46 M189.86 59.46 C190 73.45, 186.46 77.64, 170.04 79.28 M189.86 59.46 C193.64 71.8, 178.68 78.37, 170.04 79.28 M170.04 79.28 C132.72 81.48, 96.78 80.7, 19.82 79.28 M170.04 79.28 C140.53 83.72, 105.16 82.04, 19.82 79.28 M19.82 79.28 C6.16 79.27, -2.84 69.74, 0 59.46 M19.82 79.28 C2.65 76.55, 0.74 71.36, 0 59.46 M0 59.46 C-3.59 42.54, 4.02 30.86, 0 19.82 M0 59.46 C-2.34 50.71, -1.86 36.7, 0 19.82 M0 19.82 C2.2 9.89, 6.84 -0.89, 19.82 0 M0 19.82 C-2.75 7.46, 2.77 2.9, 19.82 0" stroke="#1e1e1e" stroke-width="2" fill="none"></path></g><g stroke-linecap="round"><g transform="translate(488.8196302004653 780.199308410496) rotate(0 0.39853617854555523 37.32117246733327)"><path d="M1.8 -2.09 C2.3 10.29, 1.25 64.32, 0.72 76.73 M-0.67 2.95 C-0.27 15.83, -0.58 61.23, -1.13 73.17" stroke="#1e1e1e" stroke-width="2" fill="none"></path></g><g transform="translate(488.8196302004653 780.199308410496) rotate(0 0.39853617854555523 37.32117246733327)"><path d="M-13.72 45.77 C-4.32 48.81, -8.43 54.75, -1.57 70.26 M-10.82 44.03 C-10.04 52.81, -5.04 61.07, -1.85 74.82" stroke="#1e1e1e" stroke-width="2" fill="none"></path></g><g transform="translate(488.8196302004653 780.199308410496) rotate(0 0.39853617854555523 37.32117246733327)"><path d="M6.8 46.25 C11.69 49.45, 3.09 55.28, -1.57 70.26 M9.7 44.51 C4.3 53.18, 3.11 61.3, -1.85 74.82" stroke="#1e1e1e" stroke-width="2" fill="none"></path></g></g><mask></mask><g stroke-linecap="round"><g transform="translate(1146.0230442011043 782.2856684549423) rotate(0 3.7685169736796524 36.48386178866423)"><path d="M2.33 -2.31 C2.67 10.13, 1.38 60.27, 1.74 72.87 M0.15 2.61 C1.46 15.49, 6.85 63.16, 7.38 75.28" stroke="#1e1e1e" stroke-width="2" fill="none"></path></g><g transform="translate(1146.0230442011043 782.2856684549423) rotate(0 3.7685169736796524 36.48386178866423)"><path d="M-8.48 46.05 C-5.1 57.62, -0.93 62.59, 3.7 71.94 M-5.58 50.03 C-0.84 56.53, 1.27 65.12, 9.02 75.53" stroke="#1e1e1e" stroke-width="2" fill="none"></path></g><g transform="translate(1146.0230442011043 782.2856684549423) rotate(0 3.7685169736796524 36.48386178866423)"><path d="M11.97 44.34 C9.41 56.75, 7.65 62.22, 3.7 71.94 M14.87 48.33 C13.26 55.7, 9 64.83, 9.02 75.53" stroke="#1e1e1e" stroke-width="2" fill="none"></path></g></g><mask></mask><g transform="translate(957.2074601786994 432.8203610101579) rotate(0 153.0500030517578 17.5)"><text x="0" y="0" font-family="Virgil, Segoe UI Emoji" font-size="28px" fill="#f08c00" text-anchor="start" style="white-space: pre;" direction="ltr" dominant-baseline="text-before-edge">orange Text =&gt; Trait</text></g><g transform="translate(958.2506402009226 467.2453017435247) rotate(0 206.3333282470703 17.5)"><text x="0" y="0" font-family="Virgil, Segoe UI Emoji" font-size="28px" fill="#2f9e44" text-anchor="start" style="white-space: pre;" direction="ltr" dominant-baseline="text-before-edge">green Text =&gt; Implementation</text></g><g transform="translate(563.9285918005389 449.5112413657296) rotate(0 73.64167022705078 17.5)"><text x="0" y="0" font-family="Virgil, Segoe UI Emoji" font-size="28px" fill="#1971c2" text-anchor="start" style="white-space: pre;" direction="ltr" dominant-baseline="text-before-edge">Controllers</text></g><g stroke-linecap="round"><g transform="translate(556.6263316449763 490.1952622324358) rotate(0 81.08278354900631 3.727406279530726)"><path d="M-0.55 2.38 C27.02 2.75, 138.82 2.7, 166.46 3.17 M-4.3 1.2 C22.77 1.88, 136.16 6.42, 163.99 6.25" stroke="#1e1e1e" stroke-width="2" fill="none"></path></g></g><mask></mask><g stroke-linecap="round" transform="translate(491.9491702671353 426.56128087681844) rotate(0 147.08838313347633 49.55105105560372)"><path d="M213.04 4.31 C229.08 6.2, 245.04 12.18, 257.11 16.88 C269.18 21.58, 279.46 27.08, 285.46 32.52 C291.47 37.96, 293.21 43.7, 293.14 49.53 C293.07 55.37, 291.7 61.69, 285.05 67.53 C278.39 73.38, 265.77 80.1, 253.23 84.6 C240.69 89.1, 225.42 91.96, 209.81 94.51 C194.2 97.05, 177.16 99.42, 159.58 99.87 C142.01 100.33, 121.77 98.88, 104.35 97.22 C86.93 95.57, 69.12 93.97, 55.07 89.96 C41.02 85.96, 29.03 78.44, 20.03 73.2 C11.03 67.95, 4.06 64.28, 1.07 58.48 C-1.91 52.69, -1.36 44.3, 2.1 38.43 C5.55 32.57, 12.34 28.12, 21.8 23.28 C31.26 18.45, 44.26 13.31, 58.86 9.44 C73.45 5.56, 91.73 1.34, 109.39 0.04 C127.04 -1.27, 142.48 -0.32, 164.77 1.59 C187.06 3.5, 226.54 8.07, 243.12 11.48 C259.69 14.89, 265.61 21.39, 264.23 22.05 M185.51 1.59 C202.27 3.09, 220.11 8.05, 234 11.36 C247.89 14.68, 258.9 16.3, 268.86 21.46 C278.82 26.61, 290.13 35.86, 293.75 42.26 C297.36 48.67, 293.66 54.58, 290.54 59.86 C287.41 65.14, 283.74 69.27, 275.02 73.95 C266.3 78.63, 252.49 83.78, 238.21 87.93 C223.92 92.08, 206.95 96.94, 189.3 98.85 C171.65 100.76, 149.78 100.59, 132.33 99.38 C114.88 98.18, 99.81 94.38, 84.59 91.62 C69.37 88.87, 53.35 86.6, 40.98 82.83 C28.61 79.07, 17.52 74.76, 10.37 69.03 C3.22 63.31, -1.32 55.14, -1.92 48.49 C-2.52 41.84, 0.19 34.23, 6.74 29.13 C13.29 24.02, 25.35 22.05, 37.37 17.87 C49.39 13.69, 62.78 6.56, 78.87 4.03 C94.95 1.5, 116.21 2.99, 133.87 2.69 C151.52 2.39, 175.63 2.54, 184.81 2.21 C193.98 1.87, 189.07 -0.36, 188.92 0.69" stroke="#1e1e1e" stroke-width="2" fill="none"></path></g><g stroke-linecap="round" transform="translate(10 548.6133434769372) rotate(0 642.0773036784024 481.4275802560237)"><path d="M32 0 M32 0 C452.84 7.28, 871.91 7.1, 1252.15 0 M32 0 C387.01 -4.84, 742.25 -5.22, 1252.15 0 M1252.15 0 C1272.7 2.05, 1281.38 8.98, 1284.15 32 M1252.15 0 C1275.01 3.77, 1281.22 11.24, 1284.15 32 M1284.15 32 C1280.17 390.57, 1278.32 750.84, 1284.15 930.86 M1284.15 32 C1283.33 371.63, 1282.64 712, 1284.15 930.86 M1284.15 930.86 C1287.78 948.3, 1275.74 964.21, 1252.15 962.86 M1284.15 930.86 C1281.32 947.65, 1269.55 967.44, 1252.15 962.86 M1252.15 962.86 C820.43 959.52, 388.21 959.95, 32 962.86 M1252.15 962.86 C821.54 959.79, 391.35 959.42, 32 962.86 M32 962.86 C13.01 966.37, -2.69 950.47, 0 930.86 M32 962.86 C9.38 961.72, -1.07 949.84, 0 930.86 M0 930.86 C6.05 734.03, 6.94 536.34, 0 32 M0 930.86 C-4.61 713.53, -4.22 496.09, 0 32 M0 32 C1.12 12.09, 10.26 -2.81, 32 0 M0 32 C3.78 8.27, 11.61 -3.94, 32 0" stroke="#1971c2" stroke-width="2" fill="none"></path></g><g transform="translate(1879.3785998240405 415.6078906434742) rotate(0 64.24166870117188 17.5)"><text x="0" y="0" font-family="Virgil, Segoe UI Emoji" font-size="28px" fill="#e03131" text-anchor="start" style="white-space: pre;" direction="ltr" dominant-baseline="text-before-edge">Managers</text></g><g stroke-linecap="round"><g transform="translate(1865.8172595351384 456.2919115101805) rotate(0 82.29792968052175 2.780489142057206)"><path d="M-0.08 1.68 C27.75 1.72, 140.02 2.3, 168.17 2.64 M-3.57 0.12 C23.9 1.73, 138.02 4.36, 166.61 5.44" stroke="#1e1e1e" stroke-width="2" fill="none"></path></g></g><mask></mask><g stroke-linecap="round" transform="translate(1801.1400981572974 392.65793015456313) rotate(0 147.08838313347633 49.55105105560372)"><path d="M238.4 11.03 C252.96 13.82, 263.86 18.4, 272.75 23.34 C281.63 28.28, 288.62 34.93, 291.7 40.68 C294.78 46.42, 294.93 51.95, 291.24 57.81 C287.56 63.66, 279.46 70.18, 269.6 75.8 C259.74 81.42, 246.42 87.65, 232.1 91.51 C217.77 95.38, 200.84 97.77, 183.66 99 C166.48 100.22, 146.18 100.11, 129.02 98.88 C111.86 97.65, 96.38 94.32, 80.68 91.63 C64.99 88.93, 47.07 86.71, 34.83 82.69 C22.59 78.68, 12.82 73.23, 7.25 67.55 C1.69 61.86, 0.49 54.52, 1.44 48.59 C2.39 42.67, 6.18 37.35, 12.97 32.02 C19.76 26.68, 30.47 20.84, 42.2 16.57 C53.93 12.29, 67.4 9.17, 83.36 6.37 C99.32 3.57, 120.44 0.45, 137.95 -0.23 C155.47 -0.92, 169.07 -0.65, 188.43 2.25 C207.79 5.16, 240.58 13.95, 254.1 17.19 C267.62 20.43, 271 21.36, 269.53 21.71 M35.59 16.1 C44.77 10.96, 63.47 7.69, 79.01 4.59 C94.54 1.49, 111.03 -1.94, 128.8 -2.51 C146.58 -3.08, 168.95 -0.47, 185.65 1.19 C202.35 2.85, 215.32 3.53, 229.02 7.46 C242.72 11.39, 257.83 19.72, 267.86 24.77 C277.88 29.82, 285.41 32.42, 289.17 37.75 C292.93 43.08, 292.68 51.14, 290.4 56.75 C288.12 62.36, 284.12 66.15, 275.48 71.43 C266.85 76.7, 252.93 84.16, 238.6 88.42 C224.27 92.68, 206.5 94.97, 189.49 96.98 C172.48 98.99, 153.53 100.99, 136.55 100.49 C119.57 100, 103.92 96.83, 87.6 94 C71.28 91.18, 51.48 87.64, 38.64 83.53 C25.8 79.41, 16.66 74.41, 10.54 69.3 C4.43 64.2, 2.31 59.07, 1.97 52.9 C1.62 46.73, 2.8 38.64, 8.48 32.28 C14.15 25.92, 30.95 17.13, 36.03 14.75 C41.11 12.38, 37.46 17.31, 38.96 18.04" stroke="#1e1e1e" stroke-width="2" fill="none"></path></g><g transform="translate(2174.598546113215 623.7223050770102) rotate(0 173.22500610351562 122.5)"><text x="0" y="0" font-family="Virgil, Segoe UI Emoji" font-size="28px" fill="#1e1e1e" text-anchor="start" style="white-space: pre;" direction="ltr" dominant-baseline="text-before-edge">-&gt; Connection</text><text x="0" y="35" font-family="Virgil, Segoe UI Emoji" font-size="28px" fill="#1e1e1e" text-anchor="start" style="white-space: pre;" direction="ltr" dominant-baseline="text-before-edge">    -&gt; sqlx::AnyConnection</text><text x="0" y="70" font-family="Virgil, Segoe UI Emoji" font-size="28px" fill="#1e1e1e" text-anchor="start" style="white-space: pre;" direction="ltr" dominant-baseline="text-before-edge">        -&gt; DBMS</text><text x="0" y="105" font-family="Virgil, Segoe UI Emoji" font-size="28px" fill="#1e1e1e" text-anchor="start" style="white-space: pre;" direction="ltr" dominant-baseline="text-before-edge">        -&gt; User</text><text x="0" y="140" font-family="Virgil, Segoe UI Emoji" font-size="28px" fill="#1e1e1e" text-anchor="start" style="white-space: pre;" direction="ltr" dominant-baseline="text-before-edge">        -&gt; Password</text><text x="0" y="175" font-family="Virgil, Segoe UI Emoji" font-size="28px" fill="#1e1e1e" text-anchor="start" style="white-space: pre;" direction="ltr" dominant-baseline="text-before-edge">        -&gt; Address</text><text x="0" y="210" font-family="Virgil, Segoe UI Emoji" font-size="28px" fill="#1e1e1e" text-anchor="start" style="white-space: pre;" direction="ltr" dominant-baseline="text-before-edge">-&gt; Filepath</text></g><g transform="translate(120.5770823556627 1119.448715744164) rotate(0 88.9000015258789 17.5)"><text x="0" y="0" font-family="Virgil, Segoe UI Emoji" font-size="28px" fill="#f08c00" text-anchor="start" style="white-space: pre;" direction="ltr" dominant-baseline="text-before-edge">Validator ???</text></g><g transform="translate(94.49758180008166 1280.9257190776493) rotate(0 106.375 17.5)"><text x="0" y="0" font-family="Virgil, Segoe UI Emoji" font-size="28px" fill="#2f9e44" text-anchor="start" style="white-space: pre;" direction="ltr" dominant-baseline="text-before-edge">MySQLValidator</text></g><g transform="translate(53.81356093337513 1328.9120000999183) rotate(0 142.2916717529297 17.5)"><text x="0" y="0" font-family="Virgil, Segoe UI Emoji" font-size="28px" fill="#2f9e44" text-anchor="start" style="white-space: pre;" direction="ltr" dominant-baseline="text-before-edge">PostgreSQLValidator</text></g><g transform="translate(108.05892208898376 1389.4164413888661) rotate(0 91.43333435058594 17.5)"><text x="0" y="0" font-family="Virgil, Segoe UI Emoji" font-size="28px" fill="#2f9e44" text-anchor="start" style="white-space: pre;" direction="ltr" dominant-baseline="text-before-edge">YamlValidator</text></g><g stroke-linecap="round" transform="translate(39.20904062224986 1255.889398544292) rotate(0 160.64972342237843 95.45097203342607)"><path d="M32 0 M32 0 C129.54 0.37, 223.99 0.54, 289.3 0 M32 0 C86.68 0.39, 143.57 0.99, 289.3 0 M289.3 0 C307.42 3.48, 321.81 10.4, 321.3 32 M289.3 0 C311.03 -3.75, 325.04 11.93, 321.3 32 M321.3 32 C317.8 76.58, 322.99 122.32, 321.3 158.9 M321.3 32 C319.5 60.27, 317.13 92.95, 321.3 158.9 M321.3 158.9 C320.52 177.77, 309.57 189.73, 289.3 190.9 M321.3 158.9 C321.68 179.86, 311.6 187.23, 289.3 190.9 M289.3 190.9 C206.79 190.64, 117.86 188.07, 32 190.9 M289.3 190.9 C197.1 194.43, 106.05 194, 32 190.9 M32 190.9 C14.4 194.56, -3.4 179.36, 0 158.9 M32 190.9 C7.45 190.12, 1.96 183.55, 0 158.9 M0 158.9 C0.63 114.62, 2.34 67.72, 0 32 M0 158.9 C2.85 117.62, -0.01 80.58, 0 32 M0 32 C-0.64 10.73, 12.38 -0.7, 32 0 M0 32 C-3.35 10.75, 6.8 -1.54, 32 0" stroke="#1e1e1e" stroke-width="2" fill="none"></path></g><g stroke-linecap="round"><g transform="translate(195.49036973401007 1167.2190966553171) rotate(0 1.1626637166026512 36.75136004881267)"><path d="M2.41 0.08 C2.16 12.19, 1.4 60.9, 1.12 72.87 M0.27 -2.34 C-0.4 10.13, 0.1 63.16, 0.03 75.85" stroke="#1e1e1e" stroke-width="2" fill="none"></path></g><g transform="translate(195.49036973401007 1167.2190966553171) rotate(0 1.1626637166026512 36.75136004881267)"><path d="M-10.18 50.7 C-7.9 61.08, -5.26 72.97, 2.37 78.35 M-9.99 46.06 C-5.68 57.27, -3.49 68.01, -0.4 76.82" stroke="#1e1e1e" stroke-width="2" fill="none"></path></g><g transform="translate(195.49036973401007 1167.2190966553171) rotate(0 1.1626637166026512 36.75136004881267)"><path d="M10.34 50.65 C4.54 61.4, -0.91 73.31, 2.37 78.35 M10.53 46.01 C6.92 56.91, 1.2 67.67, -0.4 76.82" stroke="#1e1e1e" stroke-width="2" fill="none"></path></g></g><mask></mask><g transform="translate(519.0718508449381 1072.289714633002) rotate(0 150.60833740234375 17.5)"><text x="0" y="0" font-family="Virgil, Segoe UI Emoji" font-size="28px" fill="#2f9e44" text-anchor="start" style="white-space: pre;" direction="ltr" dominant-baseline="text-before-edge">DummyDataGenerator</text></g><g stroke-linecap="round" transform="translate(502.3809704893665 1054.5556542552072) rotate(0 167.95198357794106 35.46812075559001)"><path d="M17.73 0 M17.73 0 C127.2 -0.39, 237.46 -5.19, 318.17 0 M17.73 0 C85.58 5.37, 154.71 4.45, 318.17 0 M318.17 0 C327.25 3.36, 335.3 2.54, 335.9 17.73 M318.17 0 C329.9 1.8, 340.42 3.83, 335.9 17.73 M335.9 17.73 C333.28 33.99, 333.62 47.07, 335.9 53.2 M335.9 17.73 C337.01 24.86, 335.11 35.74, 335.9 53.2 M335.9 53.2 C332.67 61.41, 328.5 73.84, 318.17 70.94 M335.9 53.2 C335.05 64.64, 329.44 67.11, 318.17 70.94 M318.17 70.94 C242.76 71.97, 164.21 70.85, 17.73 70.94 M318.17 70.94 C251.46 73.44, 182.29 73.13, 17.73 70.94 M17.73 70.94 C9.57 69.53, -0.93 68.21, 0 53.2 M17.73 70.94 C8.5 75.07, -3.62 65.08, 0 53.2 M0 53.2 C-4.21 43.98, 1.23 34.09, 0 17.73 M0 53.2 C-0.17 40.74, -0.34 26.73, 0 17.73 M0 17.73 C2.78 6.84, 7.56 3.09, 17.73 0 M0 17.73 C2.79 1.74, 5.54 4.02, 17.73 0" stroke="#1e1e1e" stroke-width="2" fill="none"></path></g><g transform="translate(450.22196937819854 1195.384957255344) rotate(0 127.96666717529297 17.5)"><text x="0" y="0" font-family="Virgil, Segoe UI Emoji" font-size="28px" fill="#f08c00" text-anchor="start" style="white-space: pre;" direction="ltr" dominant-baseline="text-before-edge">DatabaseImporter</text></g><g transform="translate(908.1779991341996 1200.6008573664603) rotate(0 128.77499389648438 17.5)"><text x="0" y="0" font-family="Virgil, Segoe UI Emoji" font-size="28px" fill="#f08c00" text-anchor="start" style="white-space: pre;" direction="ltr" dominant-baseline="text-before-edge">DatabaseExporter</text></g><g transform="translate(461.6969496226543 1323.6960999888024) rotate(0 102.80000305175781 17.5)"><text x="0" y="0" font-family="Virgil, Segoe UI Emoji" font-size="28px" fill="#2f9e44" text-anchor="start" style="white-space: pre;" direction="ltr" dominant-baseline="text-before-edge">MySQLImporter</text></g><g transform="translate(430.40154895595697 1370.6392009888477) rotate(0 138.71665954589844 17.5)"><text x="0" y="0" font-family="Virgil, Segoe UI Emoji" font-size="28px" fill="#2f9e44" text-anchor="start" style="white-space: pre;" direction="ltr" dominant-baseline="text-before-edge">PostgreSQLImporter</text></g><g transform="translate(935.3006797120038 1336.214260255481) rotate(0 103.60832977294922 17.5)"><text x="0" y="0" font-family="Virgil, Segoe UI Emoji" font-size="28px" fill="#2f9e44" text-anchor="start" style="white-space: pre;" direction="ltr" dominant-baseline="text-before-edge">MySQLExporter</text></g><g transform="translate(897.746198911967 1374.8119210777409) rotate(0 139.52499389648438 17.5)"><text x="0" y="0" font-family="Virgil, Segoe UI Emoji" font-size="28px" fill="#2f9e44" text-anchor="start" style="white-space: pre;" direction="ltr" dominant-baseline="text-before-edge">PostgreSQLExporter</text></g><g stroke-linecap="round" transform="translate(417.8833886892785 1314.307479788793) rotate(0 153.86905327792738 54.24536115560841)"><path d="M27.12 0 M27.12 0 C88.17 1.67, 148.69 5.37, 280.62 0 M27.12 0 C109.81 1.07, 194.74 -0.16, 280.62 0 M280.62 0 C300.7 -1.41, 311.4 6.62, 307.74 27.12 M280.62 0 C302.92 1.61, 309.31 7.05, 307.74 27.12 M307.74 27.12 C310.72 42.87, 307.27 62.86, 307.74 81.37 M307.74 27.12 C304.84 44.39, 306.26 63.54, 307.74 81.37 M307.74 81.37 C306.47 98.43, 296.33 109.7, 280.62 108.49 M307.74 81.37 C308.39 100.53, 300.27 104.5, 280.62 108.49 M280.62 108.49 C198.1 112.4, 116.47 108.99, 27.12 108.49 M280.62 108.49 C231.11 106.53, 178.39 106.48, 27.12 108.49 M27.12 108.49 C7.16 111.17, -3.2 97.35, 0 81.37 M27.12 108.49 C10.98 110.41, 1.55 102.04, 0 81.37 M0 81.37 C1.9 67.6, -1.27 51.54, 0 27.12 M0 81.37 C0.99 68.29, 0.98 50.34, 0 27.12 M0 27.12 C-3.66 7.82, 5.53 1.2, 27.12 0 M0 27.12 C-4.28 12.33, 12.75 1.91, 27.12 0" stroke="#1e1e1e" stroke-width="2" fill="none"></path></g><g stroke-linecap="round" transform="translate(882.0984985786176 1321.6097399443556) rotate(0 154.3906432890392 50.07264106671539)"><path d="M25.04 0 M25.04 0 C96.29 -1.09, 163.77 -4.23, 283.74 0 M25.04 0 C94.77 1.38, 166.71 3.24, 283.74 0 M283.74 0 C301.36 1.06, 305.17 12.28, 308.78 25.04 M283.74 0 C298.73 0.08, 307.53 10.54, 308.78 25.04 M308.78 25.04 C304.79 44.35, 307.56 58.81, 308.78 75.11 M308.78 25.04 C307.75 40.22, 306.5 54.45, 308.78 75.11 M308.78 75.11 C307.44 89.79, 297.61 98.02, 283.74 100.15 M308.78 75.11 C304.33 93.05, 303.45 101.56, 283.74 100.15 M283.74 100.15 C221.77 101.3, 156.02 102.12, 25.04 100.15 M283.74 100.15 C202.15 100.33, 117.74 101.11, 25.04 100.15 M25.04 100.15 C9.46 98.17, -2.75 88.93, 0 75.11 M25.04 100.15 C7.31 96.73, -2.9 92.05, 0 75.11 M0 75.11 C-1.2 59.99, 0.93 48.45, 0 25.04 M0 75.11 C-1.8 62.48, -2.31 46.21, 0 25.04 M0 25.04 C-2.19 6.75, 6.64 2.43, 25.04 0 M0 25.04 C0 9.88, 10.34 2.59, 25.04 0" stroke="#1e1e1e" stroke-width="2" fill="none"></path></g><g stroke-linecap="round"><g transform="translate(572.792779048586 1244.4144182998361) rotate(0 0.49038656120387714 30.19402652887311)"><path d="M1.75 -1.93 C1.89 8.13, 1.26 49.04, 0.08 58.96 M-0.74 3.2 C-0.68 13.82, -0.88 52.9, -0.74 62.32" stroke="#1e1e1e" stroke-width="2" fill="none"></path></g><g transform="translate(572.792779048586 1244.4144182998361) rotate(0 0.49038656120387714 30.19402652887311)"><path d="M-13.76 38.1 C-9.18 37.97, -8.33 46.75, -4.3 64.95 M-12.39 33.21 C-5.91 43.33, -3.38 51.79, 0.06 63.44" stroke="#1e1e1e" stroke-width="2" fill="none"></path></g><g transform="translate(572.792779048586 1244.4144182998361) rotate(0 0.49038656120387714 30.19402652887311)"><path d="M6.59 38.03 C5.58 38.18, 0.85 46.98, -4.3 64.95 M7.96 33.15 C8.36 43.65, 4.81 52.13, 0.06 63.44" stroke="#1e1e1e" stroke-width="2" fill="none"></path></g></g><mask></mask><g stroke-linecap="round"><g transform="translate(1042.8565079207428 1243.371238277613) rotate(0 1.5857195718033381 27.70221095056479)"><path d="M-2.09 0.21 C-1.29 9.49, 4.65 44.91, 5.26 54.4 M1.97 -2.14 C2.49 7.65, 2.97 48.43, 3.85 57.54" stroke="#1e1e1e" stroke-width="2" fill="none"></path></g><g transform="translate(1042.8565079207428 1243.371238277613) rotate(0 1.5857195718033381 27.70221095056479)"><path d="M-6.51 34.14 C-4.95 37.12, 2.29 50.03, 3.1 56.6 M-8.81 32.41 C-3.45 43.86, 3.22 50.99, 1.98 59.38" stroke="#1e1e1e" stroke-width="2" fill="none"></path></g><g transform="translate(1042.8565079207428 1243.371238277613) rotate(0 1.5857195718033381 27.70221095056479)"><path d="M12.42 33.26 C7.99 36.24, 9.25 49.43, 3.1 56.6 M10.12 31.54 C7.93 43.12, 7.03 50.6, 1.98 59.38" stroke="#1e1e1e" stroke-width="2" fill="none"></path></g></g><mask></mask><g transform="translate(1433.9407303347111 619.5495849881173) rotate(0 336.5666809082031 280)"><text x="0" y="0" font-family="Virgil, Segoe UI Emoji" font-size="28px" fill="#1e1e1e" text-anchor="start" style="white-space: pre;" direction="ltr" dominant-baseline="text-before-edge">-&gt; Name</text><text x="0" y="35" font-family="Virgil, Segoe UI Emoji" font-size="28px" fill="#1e1e1e" text-anchor="start" style="white-space: pre;" direction="ltr" dominant-baseline="text-before-edge">-&gt; Tables</text><text x="0" y="70" font-family="Virgil, Segoe UI Emoji" font-size="28px" fill="#1e1e1e" text-anchor="start" style="white-space: pre;" direction="ltr" dominant-baseline="text-before-edge">    -&gt; Columns</text><text x="0" y="105" font-family="Virgil, Segoe UI Emoji" font-size="28px" fill="#1e1e1e" text-anchor="start" style="white-space: pre;" direction="ltr" dominant-baseline="text-before-edge">        -&gt; Name</text><text x="0" y="140" font-family="Virgil, Segoe UI Emoji" font-size="28px" fill="#1e1e1e" text-anchor="start" style="white-space: pre;" direction="ltr" dominant-baseline="text-before-edge">        -&gt; Datatype - enum</text><text x="0" y="175" font-family="Virgil, Segoe UI Emoji" font-size="28px" fill="#1e1e1e" text-anchor="start" style="white-space: pre;" direction="ltr" dominant-baseline="text-before-edge">        -&gt; Default</text><text x="0" y="210" font-family="Virgil, Segoe UI Emoji" font-size="28px" fill="#1e1e1e" text-anchor="start" style="white-space: pre;" direction="ltr" dominant-baseline="text-before-edge">        -&gt; Auto_increment</text><text x="0" y="245" font-family="Virgil, Segoe UI Emoji" font-size="28px" fill="#1e1e1e" text-anchor="start" style="white-space: pre;" direction="ltr" dominant-baseline="text-before-edge">        -&gt; Not_null</text><text x="0" y="280" font-family="Virgil, Segoe UI Emoji" font-size="28px" fill="#1e1e1e" text-anchor="start" style="white-space: pre;" direction="ltr" dominant-baseline="text-before-edge">    -&gt; Primary Keys</text><text x="0" y="315" font-family="Virgil, Segoe UI Emoji" font-size="28px" fill="#1e1e1e" text-anchor="start" style="white-space: pre;" direction="ltr" dominant-baseline="text-before-edge">    -&gt; Foreign Keys</text><text x="0" y="350" font-family="Virgil, Segoe UI Emoji" font-size="28px" fill="#1e1e1e" text-anchor="start" style="white-space: pre;" direction="ltr" dominant-baseline="text-before-edge">    -&gt; Indices</text><text x="0" y="385" font-family="Virgil, Segoe UI Emoji" font-size="28px" fill="#1e1e1e" text-anchor="start" style="white-space: pre;" direction="ltr" dominant-baseline="text-before-edge">-&gt; Users</text><text x="0" y="420" font-family="Virgil, Segoe UI Emoji" font-size="28px" fill="#1e1e1e" text-anchor="start" style="white-space: pre;" direction="ltr" dominant-baseline="text-before-edge">    -&gt; Name</text><text x="0" y="455" font-family="Virgil, Segoe UI Emoji" font-size="28px" fill="#1e1e1e" text-anchor="start" style="white-space: pre;" direction="ltr" dominant-baseline="text-before-edge">    -&gt; Password</text><text x="0" y="490" font-family="Virgil, Segoe UI Emoji" font-size="28px" fill="#1e1e1e" text-anchor="start" style="white-space: pre;" direction="ltr" dominant-baseline="text-before-edge">    -&gt; Host</text><text x="0" y="525" font-family="Virgil, Segoe UI Emoji" font-size="28px" fill="#1e1e1e" text-anchor="start" style="white-space: pre;" direction="ltr" dominant-baseline="text-before-edge">    -&gt; Rechte (for the beginning: Admin or CRUD)</text></g><g transform="translate(1616.497234223777 1271.5370988776403) rotate(0 421.54998779296875 140)"><text x="0" y="0" font-family="Virgil, Segoe UI Emoji" font-size="28px" fill="#1e1e1e" text-anchor="start" style="white-space: pre;" direction="ltr" dominant-baseline="text-before-edge">-&gt; Simple collection of semantic mistakes by user</text><text x="0" y="35" font-family="Virgil, Segoe UI Emoji" font-size="28px" fill="#1e1e1e" text-anchor="start" style="white-space: pre;" direction="ltr" dominant-baseline="text-before-edge">    -&gt; Invalid names</text><text x="0" y="70" font-family="Virgil, Segoe UI Emoji" font-size="28px" fill="#1e1e1e" text-anchor="start" style="white-space: pre;" direction="ltr" dominant-baseline="text-before-edge">    -&gt; Invalid auto_increment</text><text x="0" y="105" font-family="Virgil, Segoe UI Emoji" font-size="28px" fill="#1e1e1e" text-anchor="start" style="white-space: pre;" direction="ltr" dominant-baseline="text-before-edge">    -&gt; Invalid Keys</text><text x="0" y="140" font-family="Virgil, Segoe UI Emoji" font-size="28px" fill="#1e1e1e" text-anchor="start" style="white-space: pre;" direction="ltr" dominant-baseline="text-before-edge">    -&gt; etc...</text><text x="0" y="175" font-family="Virgil, Segoe UI Emoji" font-size="28px" fill="#1e1e1e" text-anchor="start" style="white-space: pre;" direction="ltr" dominant-baseline="text-before-edge">-&gt; Filled by validator</text><text x="0" y="210" font-family="Virgil, Segoe UI Emoji" font-size="28px" fill="#1e1e1e" text-anchor="start" style="white-space: pre;" direction="ltr" dominant-baseline="text-before-edge">-&gt; Can be read by Apps to catch some errors ahead of time</text><text x="0" y="245" font-family="Virgil, Segoe UI Emoji" font-size="28px" fill="#1e1e1e" text-anchor="start" style="white-space: pre;" direction="ltr" dominant-baseline="text-before-edge">   when writng due to bad user data</text></g><g transform="translate(1647.7926348904753 580.9519241658577) rotate(0 114.42500305175781 17.5)"><text x="0" y="0" font-family="Virgil, Segoe UI Emoji" font-size="28px" fill="#2f9e44" text-anchor="start" style="white-space: pre;" direction="ltr" dominant-baseline="text-before-edge">VirtualDatabase</text></g><g transform="translate(2285.1756284688718 574.6928440325181) rotate(0 56.20833206176758 17.5)"><text x="0" y="0" font-family="Virgil, Segoe UI Emoji" font-size="28px" fill="#2f9e44" text-anchor="start" style="white-space: pre;" direction="ltr" dominant-baseline="text-before-edge">Settings</text></g><g transform="translate(1955.5307414463286 1226.680357922041) rotate(0 62.20000076293945 17.5)"><text x="0" y="0" font-family="Virgil, Segoe UI Emoji" font-size="28px" fill="#2f9e44" text-anchor="start" style="white-space: pre;" direction="ltr" dominant-baseline="text-before-edge">ErrorList</text></g><g stroke-linecap="round" transform="translate(1386.9976293346645 517.3179428102402) rotate(0 632.6886834783932 550.799051733869)"><path d="M32 0 M32 0 C384.45 9.31, 737.87 8.18, 1233.38 0 M32 0 C431.27 -1.42, 831.71 -1.57, 1233.38 0 M1233.38 0 C1255.23 3.93, 1268.91 12.64, 1265.38 32 M1233.38 0 C1253.37 4.18, 1265.18 10.75, 1265.38 32 M1265.38 32 C1264.67 353.44, 1264.23 673.77, 1265.38 1069.6 M1265.38 32 C1272.24 239.98, 1272.21 447.52, 1265.38 1069.6 M1265.38 1069.6 C1268.32 1090.65, 1258.64 1100.78, 1233.38 1101.6 M1265.38 1069.6 C1264.89 1092.36, 1254.45 1098.38, 1233.38 1101.6 M1233.38 1101.6 C766.27 1105.79, 297.53 1105.22, 32 1101.6 M1233.38 1101.6 C776.25 1101.71, 317.79 1101.05, 32 1101.6 M32 1101.6 C14.52 1105.56, -1.09 1092.96, 0 1069.6 M32 1101.6 C12.39 1099.36, 2.55 1094.66, 0 1069.6 M0 1069.6 C6.53 820.93, 8.17 569.84, 0 32 M0 1069.6 C3.46 797.37, 3.94 524.17, 0 32 M0 32 C2.62 8.22, 7.67 -2.12, 32 0 M0 32 C1.17 7.4, 13.26 -2.03, 32 0" stroke="#e03131" stroke-width="2" fill="none"></path></g><g stroke-linecap="round"><g transform="translate(1210.7002055789371 339.97733903229016) rotate(0 111.3450837497694 -0.7624323215751474)"><path d="M0.26 0.74 C37.02 -0.14, 183.57 -2.11, 220.71 -2.47 M-3.05 -1.33 C34.55 -0.57, 188.36 0.39, 225.74 0.95" stroke="#ffffff" stroke-width="4" fill="none"></path></g></g><mask></mask></svg>